<?xml version="1.0" encoding="UTF-8"?>
<svg version="1.1" xmlns="http://www.w3.org/2000/svg" width="171" height="201">
<path d="M0 0 C3.55780196 0.60990891 6.6828589 1.5783681 10 3 C10 3.66 10 4.32 10 5 C12.41288955 6.35121815 14.5602075 7.1508251 17.25 7.875 C23.9359176 9.88077528 32.05692562 13.08538843 36 19 C36.58585321 24.15550825 35.18392043 27.45016577 33 32 C33.55945313 32.08636719 34.11890625 32.17273437 34.6953125 32.26171875 C42.46302154 33.62294107 49.64844718 36.18963697 57 39 C57.7734375 39.29261719 58.546875 39.58523437 59.34375 39.88671875 C62.51505409 41.15658416 64.96878664 42.22365148 67 45 C68.16487967 54.94333628 66.5592243 65.22511833 65.1875 75.0625 C64.81416843 77.8650918 64.44950486 80.66878284 64.0859375 83.47265625 C63.9476931 84.53173691 63.9476931 84.53173691 63.80665588 85.61221313 C62.84372848 93.06204853 62.05582493 100.52513963 61.3125 108 C61.18842773 109.24652344 61.06435547 110.49304688 60.93652344 111.77734375 C60.18622184 119.53533689 59.59514617 127.27739051 59.30859375 135.06640625 C58.87015042 139.23439287 58.18964692 141.94305342 55.00390625 144.7734375 C54.19824219 145.30195313 53.39257812 145.83046875 52.5625 146.375 C51.67433594 146.97054687 50.78617188 147.56609375 49.87109375 148.1796875 C47.94394459 149.40152629 45.99795182 150.59409971 44.03515625 151.7578125 C43.07480469 152.33273438 42.11445313 152.90765625 41.125 153.5 C40.24070313 154.0053125 39.35640625 154.510625 38.4453125 155.03125 C35.80188673 157.15950334 34.69395211 159.29004118 33.13037109 162.25683594 C31.14100174 165.3246755 28.32172155 166.99489457 25.25 168.875 C24.66734375 169.26429688 24.0846875 169.65359375 23.484375 170.0546875 C19.58422656 172.51793914 16.67960811 173.21519179 12.01318359 173.60058594 C8.14819794 174.36739609 5.27854292 176.85825058 2.1875 179.1875 C0.78877543 180.18684483 -0.61227529 181.18294184 -2.015625 182.17578125 C-2.69302734 182.65869629 -3.37042969 183.14161133 -4.06835938 183.63916016 C-6.68131785 185.47998808 -9.32589366 187.2232086 -12.0625 188.875 C-12.85785156 189.36742187 -13.65320313 189.85984375 -14.47265625 190.3671875 C-18.30824975 191.32756794 -20.75119548 189.92374023 -24 188 C-28.70200342 184.8637955 -33.27190404 181.54221797 -37.81835938 178.18554688 C-43.70609438 174.01016485 -46.83478426 172.45776746 -54 173 C-56.6796875 171.72265625 -56.6796875 171.72265625 -58.875 170.0625 C-59.61492188 169.51722656 -60.35484375 168.97195312 -61.1171875 168.41015625 C-61.73851562 167.94480469 -62.35984375 167.47945312 -63 167 C-63.66 166.67 -64.32 166.34 -65 166 C-65 165.34 -65 164.68 -65 164 C-65.99 163.67 -66.98 163.34 -68 163 C-68.495 159.535 -68.495 159.535 -69 156 C-70.65 155.67 -72.3 155.34 -74 155 C-74 154.34 -74 153.68 -74 153 C-74.68707031 152.74476563 -75.37414062 152.48953125 -76.08203125 152.2265625 C-79.43450785 150.81735547 -82.53073195 149.18195275 -85.6875 147.375 C-86.82574219 146.74335938 -87.96398437 146.11171875 -89.13671875 145.4609375 C-95.64552972 139.86673434 -94.7624896 128.54660018 -95.47265625 120.5 C-95.60134055 119.09564957 -95.73061857 117.69135344 -95.86045837 116.28710938 C-96.19920012 112.60822536 -96.53070907 108.9287271 -96.8604126 105.24902344 C-97.32579968 100.06974731 -97.80102587 94.89136334 -98.2752533 89.71289062 C-98.52717064 86.96181643 -98.77633616 84.21051563 -99.02320862 81.45898438 C-99.69785149 73.9263923 -99.69785149 73.9263923 -100.57763672 66.41601562 C-100.93664627 63.5123962 -101.11686786 60.7639147 -101.09765625 57.84375 C-101.09443359 56.9671875 -101.09121094 56.090625 -101.08789062 55.1875 C-101.07951172 54.300625 -101.07113281 53.41375 -101.0625 52.5 C-101.05798828 51.5821875 -101.05347656 50.664375 -101.04882812 49.71875 C-101.03716326 47.47909609 -101.02079614 45.23958455 -101 43 C-96.49924978 40.30983077 -92.22180058 38.1730479 -87.25 36.4375 C-85.43822266 35.80134766 -85.43822266 35.80134766 -83.58984375 35.15234375 C-80.34667608 34.1112834 -77.12600652 33.27887205 -73.8125 32.5 C-69.77714428 31.53675872 -69.77714428 31.53675872 -67.125 28.375 C-66.75375 27.59125 -66.3825 26.8075 -66 26 C-63.3125 25.1875 -63.3125 25.1875 -61 25 C-60.34 23.02 -59.68 21.04 -59 19 C-58.34 19 -57.68 19 -57 19 C-57 18.34 -57 17.68 -57 17 C-51.8531808 13.83272665 -47.841744 13.64949536 -42 14 C-42 14.66 -42 15.32 -42 16 C-41.38125 16.12375 -40.7625 16.2475 -40.125 16.375 C-38 17 -38 17 -36 19 C-33.93125966 19.6425235 -33.93125966 19.6425235 -32 20 C-32 19.01 -32 18.02 -32 17 C-32.66 17 -33.32 17 -34 17 C-34 15.35 -34 13.7 -34 12 C-30.8865736 10.4432868 -27.48451227 10.38523973 -24.0625 10 C-18.45518607 9.39249469 -18.45518607 9.39249469 -13 8 C-11.60560336 7.93334624 -10.20830125 7.91461801 -8.8125 7.9375 C-6.9253125 7.9684375 -6.9253125 7.9684375 -5 8 C-4.731875 7.195625 -4.46375 6.39125 -4.1875 5.5625 C-3.795625 4.716875 -3.40375 3.87125 -3 3 C-2.01 2.67 -1.02 2.34 0 2 C0 1.34 0 0.68 0 0 Z " fill="#FACC2F" transform="translate(102,7)"/>
<path d="M0 0 C2.64 0.33 5.28 0.66 8 1 C8 1.66 8 2.32 8 3 C9.98 3.33 11.96 3.66 14 4 C14 4.66 14 5.32 14 6 C15.423125 5.9690625 15.423125 5.9690625 16.875 5.9375 C20 6 20 6 22 7 C22 7.66 22 8.32 22 9 C24.31 9.33 26.62 9.66 29 10 C29 10.66 29 11.32 29 12 C30.32 12 31.64 12 33 12 C33 12.66 33 13.32 33 14 C34.32 14.33 35.64 14.66 37 15 C37.10277489 34.58889331 37.10941093 54.16705188 36.5625 73.75 C36.5330278 74.88279892 36.5330278 74.88279892 36.50296021 76.03848267 C36.44627679 78.16648577 36.38278567 80.29415467 36.31640625 82.421875 C36.27974854 83.62424805 36.24309082 84.82662109 36.20532227 86.06542969 C36 89 36 89 35 92 C34.76476073 94.94194291 34.57756623 97.86593213 34.4375 100.8125 C34.3950415 101.65530518 34.35258301 102.49811035 34.30883789 103.36645508 C33.96931226 110.5825702 33.89393655 117.77590072 34 125 C32.84113281 125.05800781 31.68226562 125.11601562 30.48828125 125.17578125 C25.40153899 125.81679803 22.20651296 128.15898055 18.1875 131.1875 C16.78877543 132.18684483 15.38772471 133.18294184 13.984375 134.17578125 C12.96827148 134.90015381 12.96827148 134.90015381 11.93164062 135.63916016 C9.31868215 137.47998808 6.67410634 139.2232086 3.9375 140.875 C3.14214844 141.36742187 2.34679687 141.85984375 1.52734375 142.3671875 C-2.30824975 143.32756794 -4.75119548 141.92374023 -8 140 C-12.70200342 136.8637955 -17.27190404 133.54221797 -21.81835938 130.18554688 C-27.50331525 126.15396893 -30.97773623 124.02998245 -38 125 C-36.515 124.505 -36.515 124.505 -35 124 C-35.33 123.34 -35.66 122.68 -36 122 C-36.15306901 120.18828902 -36.24946661 118.3716206 -36.31640625 116.5546875 C-36.35830078 115.47832031 -36.40019531 114.40195313 -36.44335938 113.29296875 C-36.48267578 112.16503906 -36.52199219 111.03710938 -36.5625 109.875 C-36.60568359 108.73933594 -36.64886719 107.60367188 -36.69335938 106.43359375 C-36.7996604 103.62252232 -36.90169405 100.81136055 -37 98 C-37.33 98 -37.66 98 -38 98 C-39.25664671 70.34040373 -39.10550684 42.68178803 -39 15 C-38.01 14.67 -37.02 14.34 -36 14 C-36 13.34 -36 12.68 -36 12 C-35.01 12 -34.02 12 -33 12 C-33 11.34 -33 10.68 -33 10 C-31.02 9.67 -29.04 9.34 -27 9 C-27 8.34 -27 7.68 -27 7 C-22.545 6.505 -22.545 6.505 -18 6 C-18 5.34 -18 4.68 -18 4 C-14.71303767 3.20046862 -13.28976808 2.90341064 -10 4 C-10 4.66 -10 5.32 -10 6 C-8.68 6 -7.36 6 -6 6 C-6 5.34 -6 4.68 -6 4 C-4.35 3.67 -2.7 3.34 -1 3 C-0.67 2.01 -0.34 1.02 0 0 Z " fill="#9C4099" transform="translate(86,55)"/>
<path d="M0 0 C0.69287109 0.09990234 1.38574219 0.19980469 2.09960938 0.30273438 C3.79667213 0.54851588 5.49225459 0.80448152 7.1875 1.0625 C7.1875 1.7225 7.1875 2.3825 7.1875 3.0625 C8.8375 3.0625 10.4875 3.0625 12.1875 3.0625 C12.1875 3.7225 12.1875 4.3825 12.1875 5.0625 C14.6625 5.5575 14.6625 5.5575 17.1875 6.0625 C17.6825 7.5475 17.6825 7.5475 18.1875 9.0625 C18.8475 9.0625 19.5075 9.0625 20.1875 9.0625 C20.3995025 23.07423436 20.31510721 36.91987413 18.97363281 50.875 C17.81675961 63.2424274 17.5279791 75.65023736 17.1875 88.0625 C16.5275 88.0625 15.8675 88.0625 15.1875 88.0625 C15.1875 96.3125 15.1875 104.5625 15.1875 113.0625 C15.8475 113.0625 16.5075 113.0625 17.1875 113.0625 C17.5175 114.0525 17.8475 115.0425 18.1875 116.0625 C17.02863281 116.12050781 15.86976562 116.17851562 14.67578125 116.23828125 C9.58903899 116.87929803 6.39401296 119.22148055 2.375 122.25 C0.97627543 123.24934483 -0.42477529 124.24544184 -1.828125 125.23828125 C-2.50552734 125.72119629 -3.18292969 126.20411133 -3.88085938 126.70166016 C-6.49381785 128.54248808 -9.13839366 130.2857086 -11.875 131.9375 C-12.67035156 132.42992187 -13.46570313 132.92234375 -14.28515625 133.4296875 C-18.08469979 134.38104152 -20.56831069 132.91700881 -23.8125 131.0625 C-27.02174949 129.08929475 -30.1410174 127.00193492 -33.25 124.875 C-34.07693359 124.31619141 -34.90386719 123.75738281 -35.75585938 123.18164062 C-37.77836894 121.81381624 -39.79706099 120.44071166 -41.8125 119.0625 C-39.8325 118.5675 -39.8325 118.5675 -37.8125 118.0625 C-37.8125 118.7225 -37.8125 119.3825 -37.8125 120.0625 C-36.1625 120.0625 -34.5125 120.0625 -32.8125 120.0625 C-32.4721875 121.0215625 -32.4721875 121.0215625 -32.125 122 C-30.95999104 124.33443661 -30.95999104 124.33443661 -28.1875 124.8125 C-27.40375 124.895 -26.62 124.9775 -25.8125 125.0625 C-25.4825 126.0525 -25.1525 127.0425 -24.8125 128.0625 C-23.8225 128.0625 -22.8325 128.0625 -21.8125 128.0625 C-21.8125 128.7225 -21.8125 129.3825 -21.8125 130.0625 C-20.1625 130.3925 -18.5125 130.7225 -16.8125 131.0625 C-16.8125 95.7525 -16.8125 60.4425 -16.8125 24.0625 C-17.4725 24.0625 -18.1325 24.0625 -18.8125 24.0625 C-18.8125 23.0725 -18.8125 22.0825 -18.8125 21.0625 C-18.1525 21.0625 -17.4925 21.0625 -16.8125 21.0625 C-16.874375 20.36125 -16.93625 19.66 -17 18.9375 C-16.8125 16.0625 -16.8125 16.0625 -15.375 13.375 C-13.30573635 8.98816105 -13.08734649 4.85809732 -12.8125 0.0625 C-8.38499834 -1.16688396 -4.46430393 -0.68780185 0 0 Z " fill="#99479F" transform="translate(101.8125,63.9375)"/>
<path d="M0 0 C0.99 0 1.98 0 3 0 C3.495 2.97 3.495 2.97 4 6 C4.66 6 5.32 6 6 6 C6 6.66 6 7.32 6 8 C6.99 8.33 7.98 8.66 9 9 C9 9.66 9 10.32 9 11 C9.66 11 10.32 11 11 11 C11.495 11.99 11.495 11.99 12 13 C12.99 13.33 13.98 13.66 15 14 C15.38218767 15.65614657 15.71395102 17.32457024 16 19 C15 20 15 20 12.93359375 20.09765625 C12.10988281 20.08605469 11.28617188 20.07445313 10.4375 20.0625 C9.61121094 20.05347656 8.78492188 20.04445313 7.93359375 20.03515625 C6.97646484 20.01775391 6.97646484 20.01775391 6 20 C6 20.66 6 21.32 6 22 C2.04 22.495 2.04 22.495 -2 23 C-2 23.66 -2 24.32 -2 25 C-2.99 25.33 -3.98 25.66 -5 26 C-5.33 26.66 -5.66 27.32 -6 28 C-6.66 28 -7.32 28 -8 28 C-7.86010966 31.8544062 -7.71201994 35.70845629 -7.5625 39.5625 C-7.52318359 40.64853516 -7.48386719 41.73457031 -7.44335938 42.85351562 C-7.40146484 43.91376953 -7.35957031 44.97402344 -7.31640625 46.06640625 C-7.27974854 47.03521729 -7.24309082 48.00402832 -7.20532227 49.00219727 C-7.03679548 52.05392981 -7.03679548 52.05392981 -6.50927734 55.26611328 C-5.89892604 59.74104756 -5.70267902 64.16603267 -5.53515625 68.67578125 C-5.45652322 70.5761778 -5.3777422 72.47656823 -5.29882812 74.37695312 C-5.18037285 77.32714631 -5.06384953 80.27739166 -4.95043945 83.2277832 C-4.5351449 93.89661923 -4.01917437 104.48703983 -2.66822815 115.08430481 C-1.86996042 121.42108154 -1.79708704 127.61951479 -2 134 C-2.33 132.68 -2.66 131.36 -3 130 C-4.65 129.67 -6.3 129.34 -8 129 C-8 128.34 -8 127.68 -8 127 C-8.68707031 126.74476563 -9.37414062 126.48953125 -10.08203125 126.2265625 C-13.43450785 124.81735547 -16.53073195 123.18195275 -19.6875 121.375 C-21.39486328 120.42753906 -21.39486328 120.42753906 -23.13671875 119.4609375 C-29.64552972 113.86673434 -28.7624896 102.54660018 -29.47265625 94.5 C-29.60134055 93.09564957 -29.73061857 91.69135344 -29.86045837 90.28710938 C-30.19920012 86.60822536 -30.53070907 82.9287271 -30.8604126 79.24902344 C-31.32579968 74.06974731 -31.80102587 68.89136334 -32.2752533 63.71289062 C-32.52717064 60.96181643 -32.77633616 58.21051563 -33.02320862 55.45898438 C-33.69785149 47.9263923 -33.69785149 47.9263923 -34.57763672 40.41601562 C-34.93664627 37.5123962 -35.11686786 34.7639147 -35.09765625 31.84375 C-35.09443359 30.9671875 -35.09121094 30.090625 -35.08789062 29.1875 C-35.07951172 28.300625 -35.07113281 27.41375 -35.0625 26.5 C-35.05798828 25.5821875 -35.05347656 24.664375 -35.04882812 23.71875 C-35.03716326 21.47909609 -35.02079614 19.23958455 -35 17 C-30.49924978 14.30983077 -26.22180058 12.1730479 -21.25 10.4375 C-20.04214844 10.01339844 -18.83429687 9.58929688 -17.58984375 9.15234375 C-14.34667608 8.1112834 -11.12600652 7.27887205 -7.8125 6.5 C-3.73873284 5.50598565 -3.73873284 5.50598565 -1 2.3125 C-0.67 1.549375 -0.34 0.78625 0 0 Z " fill="#9E4A9D" transform="translate(36,33)"/>
<path d="M0 0 C0.33 1.32 0.66 2.64 1 4 C1.55945313 4.08636719 2.11890625 4.17273437 2.6953125 4.26171875 C10.46302154 5.62294107 17.64844718 8.18963697 25 11 C25.7734375 11.29261719 26.546875 11.58523437 27.34375 11.88671875 C30.51505409 13.15658416 32.96878664 14.22365148 35 17 C36.16487967 26.94333628 34.5592243 37.22511833 33.1875 47.0625 C32.81416843 49.8650918 32.44950486 52.66878284 32.0859375 55.47265625 C31.99377457 56.17871002 31.90161163 56.88476379 31.80665588 57.61221313 C30.84372848 65.06204853 30.05582493 72.52513963 29.3125 80 C29.18842773 81.24652344 29.06435547 82.49304688 28.93652344 83.77734375 C28.18622184 91.53533689 27.59514617 99.27739051 27.30859375 107.06640625 C26.87015042 111.23439287 26.18964692 113.94305342 23.00390625 116.7734375 C21.79541016 117.56621094 21.79541016 117.56621094 20.5625 118.375 C19.675625 118.96667969 18.78875 119.55835938 17.875 120.16796875 C14.06034726 122.59877328 10.2214602 124.98878874 6.34765625 127.32421875 C3.99159068 129.00600266 2.58536074 130.59841393 1 133 C1.15887192 132.28515945 1.31774384 131.57031891 1.48143005 130.83381653 C1.98757098 128.06792054 2.19464915 125.4666132 2.29711914 122.65893555 C2.33708511 121.6182341 2.37705109 120.57753265 2.41822815 119.5052948 C2.47610756 117.83784966 2.47610756 117.83784966 2.53515625 116.13671875 C2.57813339 114.98959915 2.62111053 113.84247955 2.66539001 112.66059875 C2.80155108 109.00302758 2.93209656 105.34528054 3.0625 101.6875 C3.15392664 99.20506446 3.24571917 96.72264237 3.33789062 94.24023438 C3.56283702 88.1603058 3.78317531 82.08022334 4 76 C4.66 76 5.32 76 6 76 C6 71.05 6 66.1 6 61 C6.66 61 7.32 61 8 61 C7.98839844 59.8140625 7.97679687 58.628125 7.96484375 57.40625 C7.89497099 46.88712404 8.18975593 36.48976702 9 26 C8.01 26 7.02 26 6 26 C6 25.34 6 24.68 6 24 C4.02 23.67 2.04 23.34 0 23 C0 22.34 0 21.68 0 21 C-2.64 20.67 -5.28 20.34 -8 20 C-8 19.34 -8 18.68 -8 18 C-10.97 17.67 -13.94 17.34 -17 17 C-17 16.34 -17 15.68 -17 15 C-19.64 14.67 -22.28 14.34 -25 14 C-25 13.34 -25 12.68 -25 12 C-22.59454362 10.79727181 -21.05003047 10.89928528 -18.375 10.9375 C-17.14910156 10.95103516 -17.14910156 10.95103516 -15.8984375 10.96484375 C-14.95871094 10.98224609 -14.95871094 10.98224609 -14 11 C-14 10.34 -14 9.68 -14 9 C-10.35206816 7.72746564 -6.8063457 6.67170806 -3 6 C-3 5.34 -3 4.68 -3 4 C-2.01 4 -1.02 4 0 4 C0 2.68 0 1.36 0 0 Z " fill="#9B4FA3" transform="translate(134,35)"/>
<path d="M0 0 C0.99 0.33 1.98 0.66 3 1 C3 1.99 3 2.98 3 4 C4.98 4.66 6.96 5.32 9 6 C9 5.01 9 4.02 9 3 C15.03748977 3.80499864 21.01270113 4.88482498 27 6 C27 6.66 27 7.32 27 8 C28.98 8.33 30.96 8.66 33 9 C33 9.66 33 10.32 33 11 C33.99 11 34.98 11 36 11 C36.14534014 22.70795574 35.71125207 34.31514456 35 46 C34.34 46 33.68 46 33 46 C33 50.95 33 55.9 33 61 C32.34 61 31.68 61 31 61 C31.00523682 61.72251953 31.01047363 62.44503906 31.01586914 63.18945312 C31.09710476 76.21183091 31.11460502 89.23307404 30.6875 102.25 C30.65378296 103.70116211 30.65378296 103.70116211 30.61938477 105.18164062 C30.40119138 110.79826499 29.95932292 116.09545236 27 121 C24.1875 123.53125 24.1875 123.53125 21 125.5 C19.948125 126.1703125 18.89625 126.840625 17.8125 127.53125 C15 129 15 129 12 129 C11.87514462 121.27283955 12.04993892 113.59165735 12.4375 105.875 C12.47673584 105.04572998 12.51597168 104.21645996 12.55639648 103.36206055 C12.59837158 102.58000244 12.64034668 101.79794434 12.68359375 100.9921875 C12.72025146 100.29464355 12.75690918 99.59709961 12.79467773 98.87841797 C13 97 13 97 14 94 C14.15321941 91.81011021 14.24950918 89.61609884 14.31640625 87.421875 C14.33723267 86.75430679 14.35805908 86.08673859 14.3795166 85.39894104 C14.44613129 83.18274965 14.50483452 80.96644125 14.5625 78.75 C14.58367889 77.99165863 14.60485779 77.23331726 14.62667847 76.45199585 C15.14562104 57.63670492 15.09874386 38.82057949 15 20 C14.01 19.67 13.02 19.34 12 19 C12 18.34 12 17.68 12 17 C10.68 17 9.36 17 8 17 C8 16.34 8 15.68 8 15 C5.69 14.67 3.38 14.34 1 14 C1 13.34 1 12.68 1 12 C-1.64 11.67 -4.28 11.34 -7 11 C-7 10.34 -7 9.68 -7 9 C-7.99 9 -8.98 9 -10 9 C-10.33 8.01 -10.66 7.02 -11 6 C-11.66 5.34 -12.32 4.68 -13 4 C-8.48784435 0.47831754 -5.71717911 -0.53935652 0 0 Z " fill="#F9D447" transform="translate(107,50)"/>
<path d="M0 0 C1.98 0 3.96 0 6 0 C6 1.65 6 3.3 6 5 C6.86625 5.4021875 6.86625 5.4021875 7.75 5.8125 C10.0325868 7.01719859 11.9737942 8.40798115 14 10 C12.02 10.66 10.04 11.32 8 12 C8 13.32 8 14.64 8 16 C7.34 16.33 6.68 16.66 6 17 C5.7201808 56.51456099 5.7201808 56.51456099 7 96 C7.33 96 7.66 96 8 96 C8.33 105.9 8.66 115.8 9 126 C4.80924309 125.16184862 2.71926157 124.49330151 -0.8125 122.4375 C-1.60269531 121.98246094 -2.39289062 121.52742188 -3.20703125 121.05859375 C-3.79871094 120.70925781 -4.39039063 120.35992187 -5 120 C-5 119.34 -5 118.68 -5 118 C-5.99 117.67 -6.98 117.34 -8 117 C-8.05534912 116.14768799 -8.11069824 115.29537598 -8.16772461 114.41723633 C-8.37567976 111.23948258 -8.58662287 108.06194495 -8.79956055 104.88452148 C-8.890919 103.5122043 -8.9811041 102.13980846 -9.07006836 100.76733398 C-9.19853282 98.78869421 -9.33163973 96.8103576 -9.46484375 94.83203125 C-9.543396 93.64327393 -9.62194824 92.4545166 -9.70288086 91.22973633 C-9.92127525 88.13584121 -9.92127525 88.13584121 -10.50219727 85.68969727 C-11.27200091 81.53034134 -11.33640664 77.35393948 -11.5 73.1328125 C-11.54060547 72.17986298 -11.58121094 71.22691345 -11.62304688 70.24508667 C-11.75240509 67.20519962 -11.87675756 64.16514074 -12 61.125 C-12.12338248 58.09200802 -12.24798526 55.05909657 -12.37695312 52.02633667 C-12.45707861 50.14213583 -12.5340627 48.25779794 -12.60742188 46.37332153 C-12.81394178 41.51506524 -13.29365512 36.81585577 -14 32 C-14.0748573 30.02328446 -14.1083487 28.04450979 -14.09765625 26.06640625 C-14.09443359 25.00615234 -14.09121094 23.94589844 -14.08789062 22.85351562 C-14.07951172 21.76748047 -14.07113281 20.68144531 -14.0625 19.5625 C-14.05798828 18.44939453 -14.05347656 17.33628906 -14.04882812 16.18945312 C-14.03711193 13.45957899 -14.02070699 10.72981826 -14 8 C-13.34 8 -12.68 8 -12 8 C-11.67 7.01 -11.34 6.02 -11 5 C-10.01 5 -9.02 5 -8 5 C-8 4.34 -8 3.68 -8 3 C-5.36 2.67 -2.72 2.34 0 2 C0 1.34 0 0.68 0 0 Z " fill="#FAC942" transform="translate(42,53)"/>
<path d="M0 0 C0.66 0 1.32 0 2 0 C3.33895632 1.66215268 4.67130142 3.32963607 6 5 C7.64295195 6.36244796 9.30824337 7.69864875 11 9 C12.8125 10.625 12.8125 10.625 14 12 C14 12.66 14 13.32 14 14 C13.34 14 12.68 14 12 14 C12 14.99 12 15.98 12 17 C12.763125 17.103125 13.52625 17.20625 14.3125 17.3125 C17.23589031 18.06034403 18.22714335 18.60664352 20 21 C20.6875 23.1875 20.6875 23.1875 21 25 C23.64 25 26.28 25 29 25 C29 24.34 29 23.68 29 23 C29.66 23 30.32 23 31 23 C31 21.02 31 19.04 31 17 C30.34 17 29.68 17 29 17 C29 16.34 29 15.68 29 15 C33.35294118 11 33.35294118 11 37 11 C37.33 10.01 37.66 9.02 38 8 C38.66 8 39.32 8 40 8 C40.33 7.01 40.66 6.02 41 5 C41.66 5 42.32 5 43 5 C43.33 4.01 43.66 3.02 44 2 C44.99 2.33 45.98 2.66 47 3 C44.31011108 6.58651856 41.5185635 9.24220698 38 12 C37.67 12.66 37.34 13.32 37 14 C38.32 14 39.64 14 41 14 C41 13.34 41 12.68 41 12 C42.65 11.67 44.3 11.34 46 11 C46 10.34 46 9.68 46 9 C47.65 8.67 49.3 8.34 51 8 C51.33 7.01 51.66 6.02 52 5 C52.66 5 53.32 5 54 5 C54 4.34 54 3.68 54 3 C56.31 3 58.62 3 61 3 C61 2.01 61 1.02 61 0 C64.16115776 1.36983503 64.9927092 1.9890638 67 5 C67.33957563 9.07490752 67.31332486 10.53001271 65 14 C64.34 14 63.68 14 63 14 C63 15.32 63 16.64 63 18 C62.01 18 61.02 18 60 18 C60 18.66 60 19.32 60 20 C56.14243493 22.15305957 53.44870215 23.39253254 49 23 C49 23.66 49 24.32 49 25 C45.37 25.33 41.74 25.66 38 26 C38 26.66 38 27.32 38 28 C40.64 28.33 43.28 28.66 46 29 C46 29.66 46 30.32 46 31 C48.97 31.33 51.94 31.66 55 32 C55 32.66 55 33.32 55 34 C51.7 33.34 48.4 32.68 45 32 C45 32.99 45 33.98 45 35 C43.02 34.34 41.04 33.68 39 33 C39 32.01 39 31.02 39 30 C30.99061119 29.46073846 30.99061119 29.46073846 24 33 C24.66 34.32 25.32 35.64 26 37 C25.01 37 24.02 37 23 37 C23 36.34 23 35.68 23 35 C21.35 35 19.7 35 18 35 C17.67 34.01 17.34 33.02 17 32 C16.34 32 15.68 32 15 32 C14.4225 32.825 13.845 33.65 13.25 34.5 C11 37 11 37 7.75 37.3125 C6.8425 37.209375 5.935 37.10625 5 37 C5 36.34 5 35.68 5 35 C4.34 35 3.68 35 3 35 C3 34.01 3 33.02 3 32 C3.66 32 4.32 32 5 32 C5.33 29.69 5.66 27.38 6 25 C6.66 25 7.32 25 8 25 C9.12880057 21.68885166 10.21302675 18.41021743 11 15 C10.01 14.67 9.02 14.34 8 14 C8 13.01 8 12.02 8 11 C7.01 11 6.02 11 5 11 C4.67 9.35 4.34 7.7 4 6 C2.68 5.67 1.36 5.34 0 5 C0 3.35 0 1.7 0 0 Z " fill="#DA9922" transform="translate(71,21)"/>
<path d="M0 0 C6.27 0.66 12.54 1.32 19 2 C19.495 3.485 19.495 3.485 20 5 C23.3 5.33 26.6 5.66 30 6 C30 6.99 30 7.98 30 9 C27.69 9 25.38 9 23 9 C23 9.66 23 10.32 23 11 C18.64705882 15 18.64705882 15 15 15 C15 15.66 15 16.32 15 17 C13.35 17.33 11.7 17.66 10 18 C10 18.66 10 19.32 10 20 C8.68 20 7.36 20 6 20 C6.33 19.01 6.66 18.02 7 17 C7.66 17 8.32 17 9 17 C9.33 16.01 9.66 15.02 10 14 C10.66 14 11.32 14 12 14 C12.66 12.68 13.32 11.36 14 10 C13.505 9.505 13.505 9.505 13 9 C12.401875 9.763125 11.80375 10.52625 11.1875 11.3125 C6.33050847 17.27966102 6.33050847 17.27966102 1 18 C0.67 18.99 0.34 19.98 0 21 C-0.66 21 -1.32 21 -2 21 C-2 21.66 -2 22.32 -2 23 C-1.34 23 -0.68 23 0 23 C0 24.98 0 26.96 0 29 C-0.66 29 -1.32 29 -2 29 C-2 29.66 -2 30.32 -2 31 C-5.96 31.495 -5.96 31.495 -10 32 C-10.33 30.35 -10.66 28.7 -11 27 C-11.99 26.67 -12.98 26.34 -14 26 C-14 25.34 -14 24.68 -14 24 C-15.65 23.67 -17.3 23.34 -19 23 C-19 22.01 -19 21.02 -19 20 C-18.34 20 -17.68 20 -17 20 C-17 17.36 -17 14.72 -17 12 C-17.66 12 -18.32 12 -19 12 C-19 11.01 -19 10.02 -19 9 C-17 9 -17 9 -15.375 10.5 C-14.92125 10.995 -14.4675 11.49 -14 12 C-13.67 10.68 -13.34 9.36 -13 8 C-11.35 8.33 -9.7 8.66 -8 9 C-7.731875 8.21625 -7.46375 7.4325 -7.1875 6.625 C-6 4 -6 4 -3 2 C-2.01 2 -1.02 2 0 2 C0 1.34 0 0.68 0 0 Z " fill="#FCC43B" transform="translate(102,15)"/>
<path d="M0 0 C2.64 0.33 5.28 0.66 8 1 C8 1.66 8 2.32 8 3 C9.98 3.33 11.96 3.66 14 4 C14 4.66 14 5.32 14 6 C15.423125 5.9690625 15.423125 5.9690625 16.875 5.9375 C20 6 20 6 22 7 C22 7.66 22 8.32 22 9 C24.31 9.33 26.62 9.66 29 10 C29 10.66 29 11.32 29 12 C30.32 12 31.64 12 33 12 C33 12.66 33 13.32 33 14 C34.32 14.33 35.64 14.66 37 15 C37.10277489 34.58889331 37.10941093 54.16705188 36.5625 73.75 C36.5330278 74.88279892 36.5330278 74.88279892 36.50296021 76.03848267 C36.44627679 78.16648577 36.38278567 80.29415467 36.31640625 82.421875 C36.27974854 83.62424805 36.24309082 84.82662109 36.20532227 86.06542969 C36 89 36 89 35 92 C34.78092893 94.28161529 34.60962421 96.56793753 34.46484375 98.85546875 C34.42186661 99.51710526 34.37888947 100.17874176 34.33460999 100.86042786 C34.19849335 102.9692317 34.06792653 105.07833734 33.9375 107.1875 C33.84606899 108.61916404 33.75427636 110.05080503 33.66210938 111.48242188 C33.43721291 114.98802377 33.21729171 118.49391758 33 122 C32.34 122 31.68 122 31 122 C31 113.75 31 105.5 31 97 C31.66 97 32.32 97 33 97 C32.98952637 96.27748047 32.97905273 95.55496094 32.96826172 94.81054688 C32.79788197 81.15428669 32.90479481 67.66595679 34.21386719 54.06640625 C35.34349985 42.07059182 35.65528432 30.03982575 36 18 C35.34 18 34.68 18 34 18 C33.01 16.515 33.01 16.515 32 15 C29.94074861 14.27617533 29.94074861 14.27617533 28 14 C28 13.34 28 12.68 28 12 C26.35 12 24.7 12 23 12 C23 11.34 23 10.68 23 10 C21.7315625 9.814375 21.7315625 9.814375 20.4375 9.625 C17 9 17 9 13.75 7.9375 C9.08694528 6.77173632 4.77711643 6.82698572 0 7 C0 7.66 0 8.32 0 9 C-3.74767661 10.52249362 -7.52604166 11.93707902 -11.328125 13.31640625 C-13.00530351 13.87633868 -13.00530351 13.87633868 -14 15 C-17.91169659 15.2747886 -21.78811163 15.25969036 -25.625 14.4375 C-28.93945852 13.82694185 -31.72506031 14.3072243 -35 15 C-35.33 15.66 -35.66 16.32 -36 17 C-36.66 17 -37.32 17 -38 17 C-38 16.01 -38 15.02 -38 14 C-37.34 14 -36.68 14 -36 14 C-36 13.34 -36 12.68 -36 12 C-35.01 12 -34.02 12 -33 12 C-33 11.34 -33 10.68 -33 10 C-31.02 9.67 -29.04 9.34 -27 9 C-27 8.34 -27 7.68 -27 7 C-22.545 6.505 -22.545 6.505 -18 6 C-18 5.34 -18 4.68 -18 4 C-14.71303767 3.20046862 -13.28976808 2.90341064 -10 4 C-10 4.66 -10 5.32 -10 6 C-8.68 6 -7.36 6 -6 6 C-6 5.34 -6 4.68 -6 4 C-4.35 3.67 -2.7 3.34 -1 3 C-0.67 2.01 -0.34 1.02 0 0 Z " fill="#721760" transform="translate(86,55)"/>
<path d="M0 0 C3.55780196 0.60990891 6.6828589 1.5783681 10 3 C10 3.66 10 4.32 10 5 C12.41288955 6.35121815 14.5602075 7.1508251 17.25 7.875 C21.46573819 9.13972146 25.13296762 10.93088657 29 13 C29 13.33 29 13.66 29 14 C27.5199159 13.88637738 26.04089926 13.75877092 24.5625 13.625 C23.73878906 13.55539063 22.91507812 13.48578125 22.06640625 13.4140625 C21.04353516 13.20910156 21.04353516 13.20910156 20 13 C19.505 12.01 19.505 12.01 19 11 C16.05912002 10.43742276 13.21792892 10.01804037 10.25 9.6875 C9.03183594 9.52024414 9.03183594 9.52024414 7.7890625 9.34960938 C2.82315611 8.7794198 0.15195189 8.87018894 -4 12 C-4.66 12 -5.32 12 -6 12 C-6.66 13.65 -7.32 15.3 -8 17 C-9.65 16.67 -11.3 16.34 -13 16 C-13 18.97 -13 21.94 -13 25 C-13.33 25 -13.66 25 -14 25 C-14 23.35 -14 21.7 -14 20 C-14.99 19.67 -15.98 19.34 -17 19 C-17 18.34 -17 17.68 -17 17 C-17.66 17 -18.32 17 -19 17 C-19 17.99 -19 18.98 -19 20 C-18.34 20 -17.68 20 -17 20 C-17 21.98 -17 23.96 -17 26 C-17.99 25.67 -18.98 25.34 -20 25 C-20 24.34 -20 23.68 -20 23 C-20.99 22.67 -21.98 22.34 -23 22 C-23 21.34 -23 20.68 -23 20 C-23.99 19.67 -24.98 19.34 -26 19 C-26 18.34 -26 17.68 -26 17 C-26.99 16.67 -27.98 16.34 -29 16 C-29 15.34 -29 14.68 -29 14 C-29.66 14 -30.32 14 -31 14 C-31 15.65 -31 17.3 -31 19 C-29.68 19.33 -28.36 19.66 -27 20 C-26.67 21.65 -26.34 23.3 -26 25 C-25.01 25 -24.02 25 -23 25 C-23.495 26.485 -23.495 26.485 -24 28 C-30.75 29.125 -30.75 29.125 -33 28 C-33 27.01 -33 26.02 -33 25 C-34.65 25 -36.3 25 -38 25 C-38 24.34 -38 23.68 -38 23 C-38.99 22.67 -39.98 22.34 -41 22 C-41 20.68 -41 19.36 -41 18 C-46.44693314 17.90311779 -51.63904667 17.87137825 -57 19 C-57 18.34 -57 17.68 -57 17 C-51.8531808 13.83272665 -47.841744 13.64949536 -42 14 C-42 14.66 -42 15.32 -42 16 C-41.38125 16.12375 -40.7625 16.2475 -40.125 16.375 C-38 17 -38 17 -36 19 C-33.93125966 19.6425235 -33.93125966 19.6425235 -32 20 C-32 19.01 -32 18.02 -32 17 C-32.66 17 -33.32 17 -34 17 C-34 15.35 -34 13.7 -34 12 C-30.8865736 10.4432868 -27.48451227 10.38523973 -24.0625 10 C-18.45518607 9.39249469 -18.45518607 9.39249469 -13 8 C-11.60560336 7.93334624 -10.20830125 7.91461801 -8.8125 7.9375 C-6.9253125 7.9684375 -6.9253125 7.9684375 -5 8 C-4.731875 7.195625 -4.46375 6.39125 -4.1875 5.5625 C-3.795625 4.716875 -3.40375 3.87125 -3 3 C-2.01 2.67 -1.02 2.34 0 2 C0 1.34 0 0.68 0 0 Z " fill="#FABB36" transform="translate(102,7)"/>
<path d="M0 0 C0.33 1.32 0.66 2.64 1 4 C4.3 4.66 7.6 5.32 11 6 C11 6.66 11 7.32 11 8 C11.99 8.33 12.98 8.66 14 9 C14 9.66 14 10.32 14 11 C15.2375 11.103125 16.475 11.20625 17.75 11.3125 C21.2792866 11.73801682 23.37160966 12.48112592 26 15 C25.34 15 24.68 15 24 15 C24 15.66 24 16.32 24 17 C23.236875 17.103125 22.47375 17.20625 21.6875 17.3125 C18.99838514 17.74805962 18.99838514 17.74805962 17.625 19.4375 C16 21 16 21 12.375 22 C11.26125 22.33 10.1475 22.66 9 23 C8.505 24.485 8.505 24.485 8 26 C7.34 26 6.68 26 6 26 C6 25.34 6 24.68 6 24 C4.02 23.67 2.04 23.34 0 23 C0 22.34 0 21.68 0 21 C-2.64 20.67 -5.28 20.34 -8 20 C-8 19.34 -8 18.68 -8 18 C-10.97 17.67 -13.94 17.34 -17 17 C-17 16.34 -17 15.68 -17 15 C-19.64 14.67 -22.28 14.34 -25 14 C-25 13.34 -25 12.68 -25 12 C-22.59454362 10.79727181 -21.05003047 10.89928528 -18.375 10.9375 C-17.14910156 10.95103516 -17.14910156 10.95103516 -15.8984375 10.96484375 C-14.95871094 10.98224609 -14.95871094 10.98224609 -14 11 C-14 10.34 -14 9.68 -14 9 C-10.35206816 7.72746564 -6.8063457 6.67170806 -3 6 C-3 5.34 -3 4.68 -3 4 C-2.01 4 -1.02 4 0 4 C0 2.68 0 1.36 0 0 Z " fill="#A8699E" transform="translate(134,35)"/>
<path d="M0 0 C0.99 0 1.98 0 3 0 C3.33 1.98 3.66 3.96 4 6 C4.66 6 5.32 6 6 6 C6 6.66 6 7.32 6 8 C6.99 8.33 7.98 8.66 9 9 C9 9.66 9 10.32 9 11 C9.66 11 10.32 11 11 11 C11.33 11.66 11.66 12.32 12 13 C13.485 13.495 13.485 13.495 15 14 C15.38218767 15.65614657 15.71395102 17.32457024 16 19 C15 20 15 20 12.93359375 20.09765625 C12.10988281 20.08605469 11.28617188 20.07445313 10.4375 20.0625 C9.61121094 20.05347656 8.78492187 20.04445313 7.93359375 20.03515625 C6.97646484 20.01775391 6.97646484 20.01775391 6 20 C6 20.66 6 21.32 6 22 C2.04 22.495 2.04 22.495 -2 23 C-2 23.66 -2 24.32 -2 25 C-2.99 25.33 -3.98 25.66 -5 26 C-5.33 26.66 -5.66 27.32 -6 28 C-6.66 28 -7.32 28 -8 28 C-8.33 27.34 -8.66 26.68 -9 26 C-9.99 25.67 -10.98 25.34 -12 25 C-12 24.34 -12 23.68 -12 23 C-12.598125 22.87625 -13.19625 22.7525 -13.8125 22.625 C-16 22 -16 22 -19 20 C-18.71125 19.443125 -18.4225 18.88625 -18.125 18.3125 C-16.9586747 15.91505355 -15.9660119 13.48403061 -15 11 C-10.545 10.505 -10.545 10.505 -6 10 C-5.67 8.68 -5.34 7.36 -5 6 C-4.34 5.67 -3.68 5.34 -3 5 C-2.525625 4.154375 -2.05125 3.30875 -1.5625 2.4375 C-1.046875 1.633125 -0.53125 0.82875 0 0 Z " fill="#A36B97" transform="translate(36,33)"/>
<path d="M0 0 C0.99 0.33 1.98 0.66 3 1 C3 1.99 3 2.98 3 4 C4.98 4.66 6.96 5.32 9 6 C9 5.01 9 4.02 9 3 C14.465476 3.58143362 20.04578151 4.51225939 25 7 C26 10 26 10 25.0625 12.1875 C24.5365625 13.0846875 24.5365625 13.0846875 24 14 C23.34 14 22.68 14 22 14 C19.9519572 14.0950739 19.9519572 14.0950739 18 15 C16.70339566 17.49034386 16.70339566 17.49034386 16 20 C14.68 19.67 13.36 19.34 12 19 C12 18.34 12 17.68 12 17 C10.68 17 9.36 17 8 17 C8 16.34 8 15.68 8 15 C5.69 14.67 3.38 14.34 1 14 C1 13.34 1 12.68 1 12 C-1.64 11.67 -4.28 11.34 -7 11 C-7 10.34 -7 9.68 -7 9 C-7.99 9 -8.98 9 -10 9 C-10.33 8.01 -10.66 7.02 -11 6 C-11.66 5.34 -12.32 4.68 -13 4 C-8.48784435 0.47831754 -5.71717911 -0.53935652 0 0 Z " fill="#FCBE17" transform="translate(107,50)"/>
<path d="M0 0 C0.69287109 0.09990234 1.38574219 0.19980469 2.09960938 0.30273438 C3.79667213 0.54851588 5.49225459 0.80448152 7.1875 1.0625 C7.0225 1.825625 6.8575 2.58875 6.6875 3.375 C6.09604604 6.09846236 6.09604604 6.09846236 6.1875 9.0625 C7.8375 8.0725 9.4875 7.0825 11.1875 6.0625 C11.8475 7.3825 12.5075 8.7025 13.1875 10.0625 C8.54546103 12.59559233 4.53594008 14.52765599 -0.8125 15.0625 C-0.8125 15.7225 -0.8125 16.3825 -0.8125 17.0625 C-3.1225 17.3925 -5.4325 17.7225 -7.8125 18.0625 C-7.8125 18.7225 -7.8125 19.3825 -7.8125 20.0625 C-10.1225 20.3925 -12.4325 20.7225 -14.8125 21.0625 C-14.8125 20.4025 -14.8125 19.7425 -14.8125 19.0625 C-15.4725 18.7325 -16.1325 18.4025 -16.8125 18.0625 C-14.9375 12.3125 -14.9375 12.3125 -13.8125 10.0625 C-13.58627919 8.35886178 -13.40361527 6.64921299 -13.25 4.9375 C-13.12431641 3.57238281 -13.12431641 3.57238281 -12.99609375 2.1796875 C-12.93550781 1.48101562 -12.87492187 0.78234375 -12.8125 0.0625 C-8.38499834 -1.16688396 -4.46430393 -0.68780185 0 0 Z " fill="#A24E97" transform="translate(101.8125,63.9375)"/>
<path d="M0 0 C0.66 0 1.32 0 2 0 C3.33895632 1.66215268 4.67130142 3.32963607 6 5 C7.64295195 6.36244796 9.30824337 7.69864875 11 9 C12.8125 10.625 12.8125 10.625 14 12 C14 12.66 14 13.32 14 14 C13.34 14 12.68 14 12 14 C12 14.99 12 15.98 12 17 C12.763125 17.103125 13.52625 17.20625 14.3125 17.3125 C17.3131619 18.08011118 18.29340724 18.44011086 20 21 C20.6875 24.6875 20.6875 24.6875 21 28 C23.31 28 25.62 28 28 28 C28 27.34 28 26.68 28 26 C30.64 26 33.28 26 36 26 C36 26.99 36 27.98 36 29 C34.948125 29.103125 33.89625 29.20625 32.8125 29.3125 C29.12569246 29.97733415 27.03361401 30.88566296 24 33 C24.66 34.32 25.32 35.64 26 37 C25.01 37 24.02 37 23 37 C23 36.34 23 35.68 23 35 C21.35 35 19.7 35 18 35 C17.67 34.01 17.34 33.02 17 32 C16.34 32 15.68 32 15 32 C14.4225 32.825 13.845 33.65 13.25 34.5 C11 37 11 37 7.75 37.3125 C6.8425 37.209375 5.935 37.10625 5 37 C5 36.34 5 35.68 5 35 C4.34 35 3.68 35 3 35 C3 34.01 3 33.02 3 32 C3.66 32 4.32 32 5 32 C5.33 29.69 5.66 27.38 6 25 C6.66 25 7.32 25 8 25 C9.12880057 21.68885166 10.21302675 18.41021743 11 15 C10.01 14.67 9.02 14.34 8 14 C8 13.01 8 12.02 8 11 C7.01 11 6.02 11 5 11 C4.67 9.35 4.34 7.7 4 6 C2.68 5.67 1.36 5.34 0 5 C0 3.35 0 1.7 0 0 Z " fill="#D9960E" transform="translate(71,21)"/>
<path d="M0 0 C0.99 0.495 0.99 0.495 2 1 C1.98912354 1.76948975 1.97824707 2.53897949 1.96704102 3.33178711 C1.90053702 11.78412884 2.30382996 20.13603668 2.9375 28.5625 C3.02451172 29.80580078 3.11152344 31.04910156 3.20117188 32.33007812 C3.47730466 38.12051316 3.47730466 38.12051316 4.4942627 43.79777527 C5.12951558 46.56397345 5.25416381 49.21805593 5.38891602 52.05371094 C5.4788961 53.88515656 5.4788961 53.88515656 5.57069397 55.75360107 C5.63115402 57.06725647 5.69161407 58.38091187 5.75390625 59.734375 C5.81938769 61.09631001 5.88522418 62.45822799 5.95140076 63.82012939 C6.12426338 67.39723773 6.29231085 70.97455657 6.45935059 74.55194092 C6.63079546 78.2053398 6.80680155 81.85851863 6.98242188 85.51171875 C7.32607459 92.67427179 7.66463978 99.83705339 8 107 C9.65 107.33 11.3 107.66 13 108 C13 109.32 13 110.64 13 112 C15.475 111.505 15.475 111.505 18 111 C18 111.66 18 112.32 18 113 C18.66 113 19.32 113 20 113 C19.98952637 112.38479492 19.97905273 111.76958984 19.96826172 111.13574219 C19.92661305 108.34053657 19.90064584 105.54539634 19.875 102.75 C19.85824219 101.78191406 19.84148438 100.81382812 19.82421875 99.81640625 C19.81777344 98.88183594 19.81132813 97.94726562 19.8046875 96.984375 C19.79421387 96.12553711 19.78374023 95.26669922 19.77294922 94.38183594 C20 92 20 92 22 88 C22.33 97.9 22.66 107.8 23 118 C18.80924309 117.16184862 16.71926157 116.49330151 13.1875 114.4375 C12.39730469 113.98246094 11.60710938 113.52742188 10.79296875 113.05859375 C10.20128906 112.70925781 9.60960937 112.35992187 9 112 C9 111.34 9 110.68 9 110 C8.01 109.67 7.02 109.34 6 109 C5.94465088 108.14768799 5.88930176 107.29537598 5.83227539 106.41723633 C5.62432024 103.23948258 5.41337713 100.06194495 5.20043945 96.88452148 C5.109081 95.5122043 5.0188959 94.13980846 4.92993164 92.76733398 C4.80146718 90.78869421 4.66836027 88.8103576 4.53515625 86.83203125 C4.456604 85.64327393 4.37805176 84.4545166 4.29711914 83.22973633 C4.07872475 80.13584121 4.07872475 80.13584121 3.49780273 77.68969727 C2.72799909 73.53034134 2.66359336 69.35393948 2.5 65.1328125 C2.45939453 64.17986298 2.41878906 63.22691345 2.37695312 62.24508667 C2.24759491 59.20519962 2.12324244 56.16514074 2 53.125 C1.87661752 50.09200802 1.75201474 47.05909657 1.62304688 44.02633667 C1.54292139 42.14213583 1.4659373 40.25779794 1.39257812 38.37332153 C1.18605822 33.51506524 0.70634488 28.81585577 0 24 C-0.0748573 22.02328446 -0.1083487 20.04450979 -0.09765625 18.06640625 C-0.09443359 17.00615234 -0.09121094 15.94589844 -0.08789062 14.85351562 C-0.07951172 13.76748047 -0.07113281 12.68144531 -0.0625 11.5625 C-0.05798828 10.44939453 -0.05347656 9.33628906 -0.04882812 8.18945312 C-0.03711193 5.45957899 -0.02070699 2.72981826 0 0 Z " fill="#F3BB67" transform="translate(28,61)"/>
<path d="M0 0 C0.99 0.33 1.98 0.66 3 1 C3 1.99 3 2.98 3 4 C3.68707031 3.90460937 4.37414062 3.80921875 5.08203125 3.7109375 C5.98308594 3.60007813 6.88414063 3.48921875 7.8125 3.375 C8.70582031 3.25898437 9.59914063 3.14296875 10.51953125 3.0234375 C13 3 13 3 16 5 C16.6875 7.125 16.6875 7.125 17 9 C16.01 9.495 16.01 9.495 15 10 C14.690625 10.928125 14.690625 10.928125 14.375 11.875 C12.46263209 14.83047768 10.244878 15.2492911 6.97265625 16.2890625 C4.72545002 17.00988886 4.72545002 17.00988886 2 19 C1.01 19 0.02 19 -1 19 C-1 15.37 -1 11.74 -1 8 C-1.99 8 -2.98 8 -4 8 C-4 8.66 -4 9.32 -4 10 C-9.75 10.125 -9.75 10.125 -12 9 C-12 8.34 -12 7.68 -12 7 C-11.34 7 -10.68 7 -10 7 C-9.34 5.68 -8.68 4.36 -8 3 C-5.03 3.495 -5.03 3.495 -2 4 C-2 3.01 -2 2.02 -2 1 C-1.34 0.67 -0.68 0.34 0 0 Z " fill="#FBCD35" transform="translate(66,31)"/>
<path d="M0 0 C-0.85714286 8.57142857 -0.85714286 8.57142857 -3 12 C-2.34 12 -1.68 12 -1 12 C-0.67 10.35 -0.34 8.7 0 7 C0.66 7 1.32 7 2 7 C2.33 6.01 2.66 5.02 3 4 C3.99 4 4.98 4 6 4 C6 3.34 6 2.68 6 2 C7.65 1.67 9.3 1.34 11 1 C11 1.99 11 2.98 11 4 C10.34 4 9.68 4 9 4 C8.67 4.99 8.34 5.98 8 7 C7.34 7 6.68 7 6 7 C5.896875 7.763125 5.79375 8.52625 5.6875 9.3125 C4.95288806 12.18416484 4.3283935 13.23042094 2 15 C1.34 15 0.68 15 0 15 C-0.33 15.99 -0.66 16.98 -1 18 C-5.40914783 19.10228696 -9.48382401 19.07654536 -14 19 C-14.33 19.66 -14.66 20.32 -15 21 C-15.66 21 -16.32 21 -17 21 C-17 20.01 -17 19.02 -17 18 C-16.34 18 -15.68 18 -15 18 C-15 15.36 -15 12.72 -15 10 C-15.66 10 -16.32 10 -17 10 C-17 9.01 -17 8.02 -17 7 C-15 7 -15 7 -13.375 8.5 C-12.92125 8.995 -12.4675 9.49 -12 10 C-11.67 8.68 -11.34 7.36 -11 6 C-9.35 6.33 -7.7 6.66 -6 7 C-5.731875 6.21625 -5.46375 5.4325 -5.1875 4.625 C-3.0952381 0 -3.0952381 0 0 0 Z " fill="#FAB639" transform="translate(100,17)"/>
<path d="M0 0 C3.3 0 6.6 0 10 0 C10.33 1.98 10.66 3.96 11 6 C12.918125 5.9690625 12.918125 5.9690625 14.875 5.9375 C18.75 5.875 18.75 5.875 21 7 C21 7.66 21 8.32 21 9 C19.35 9.33 17.7 9.66 16 10 C16 10.66 16 11.32 16 12 C11.545 12.495 11.545 12.495 7 13 C7 13.66 7 14.32 7 15 C5.02 15.33 3.04 15.66 1 16 C1 16.66 1 17.32 1 18 C0.01 18 -0.98 18 -2 18 C-2 17.34 -2 16.68 -2 16 C-2.66 15.67 -3.32 15.34 -4 15 C-2.02 14.67 -0.04 14.34 2 14 C1.01 13.67 0.02 13.34 -1 13 C-1 12.34 -1 11.68 -1 11 C-2.32 10.34 -3.64 9.68 -5 9 C-4.67 7.35 -4.34 5.7 -4 4 C-3.01 3.67 -2.02 3.34 -1 3 C-0.67 2.01 -0.34 1.02 0 0 Z " fill="#9A5D11" transform="translate(52,49)"/>
<path d="M0 0 C2.97 0 5.94 0 9 0 C10.35439668 2.70879335 10.06501451 5.00933268 10 8 C7.1875 8.625 7.1875 8.625 4 9 C3.01 8.34 2.02 7.68 1 7 C0.9071875 7.86625 0.9071875 7.86625 0.8125 8.75 C-0.38897889 12.07717232 -2.00569288 13.1524488 -5 15 C-6.9683756 15.31747994 -8.94190251 15.63021483 -10.9296875 15.78515625 C-14.09440846 16.11357069 -16.96873873 17.05273085 -20 18 C-20 18.66 -20 19.32 -20 20 C-20.66 20 -21.32 20 -22 20 C-22 18.35 -22 16.7 -22 15 C-20.35 14.67 -18.7 14.34 -17 14 C-16.67 13.01 -16.34 12.02 -16 11 C-15.01 11 -14.02 11 -13 11 C-13 10.34 -13 9.68 -13 9 C-11.35 8.67 -9.7 8.34 -8 8 C-8 7.34 -8 6.68 -8 6 C-6.35 5.67 -4.7 5.34 -3 5 C-2.67 4.01 -2.34 3.02 -2 2 C-1.34 2 -0.68 2 0 2 C0 1.34 0 0.68 0 0 Z " fill="#BC710A" transform="translate(125,24)"/>
<path d="M0 0 C0.33 0 0.66 0 1 0 C1.10277489 19.58889331 1.10941093 39.16705188 0.5625 58.75 C0.54285187 59.50519928 0.52320374 60.26039856 0.50296021 61.03848267 C0.44627679 63.16648577 0.38278567 65.29415467 0.31640625 67.421875 C0.27974854 68.62424805 0.24309082 69.82662109 0.20532227 71.06542969 C0 74 0 74 -1 77 C-1.21907107 79.28161529 -1.39037579 81.56793753 -1.53515625 83.85546875 C-1.57813339 84.51710526 -1.62111053 85.17874176 -1.66539001 85.86042786 C-1.80150665 87.9692317 -1.93207347 90.07833734 -2.0625 92.1875 C-2.15393101 93.61916404 -2.24572364 95.05080503 -2.33789062 96.48242188 C-2.56278709 99.98802377 -2.78270829 103.49391758 -3 107 C-3.66 107 -4.32 107 -5 107 C-5 98.75 -5 90.5 -5 82 C-4.34 82 -3.68 82 -3 82 C-3.01571045 80.9162207 -3.01571045 80.9162207 -3.03173828 79.81054688 C-3.20125813 66.22320897 -3.09919439 52.80698177 -1.78613281 39.27734375 C-0.98101049 30.69319259 -0.63375281 22.11413724 -0.375 13.5 C-0.35462677 12.82245667 -0.33425354 12.14491333 -0.31326294 11.44683838 C-0.20055215 7.63142986 -0.09657396 3.81584903 0 0 Z " fill="#8D464C" transform="translate(122,70)"/>
<path d="M0 0 C2.31 0 4.62 0 7 0 C7 0.66 7 1.32 7 2 C8.65 2.33 10.3 2.66 12 3 C12 3.66 12 4.32 12 5 C14.64 5.33 17.28 5.66 20 6 C20 6.66 20 7.32 20 8 C21.32 8.33 22.64 8.66 24 9 C23.67 11.31 23.34 13.62 23 16 C19.7 15.34 16.4 14.68 13 14 C13 13.67 13 13.34 13 13 C11.35 12.67 9.7 12.34 8 12 C8 11.34 8 10.68 8 10 C6.68 10 5.36 10 4 10 C4 9.34 4 8.68 4 8 C2.35 8 0.7 8 -1 8 C-1.33 6.35 -1.66 4.7 -2 3 C-1.34 2.67 -0.68 2.34 0 2 C0 1.34 0 0.68 0 0 Z " fill="#9C3298" transform="translate(4,50)"/>
<path d="M0 0 C0.33 0 0.66 0 1 0 C1.01981934 0.86238281 1.03963867 1.72476563 1.06005859 2.61328125 C1.47264107 19.88247933 2.09819484 37.09996984 3.26904297 54.33544922 C3.94263935 64.4318687 4.30957756 74.51816909 4.60107422 84.63183594 C4.83665222 91.78712503 5.39899243 98.67671226 6.6953125 105.7265625 C7 108 7 108 6 110 C4.35 110 2.7 110 1 110 C2.485 109.505 2.485 109.505 4 109 C3.67 108.34 3.34 107.68 3 107 C2.84693099 105.18828902 2.75053339 103.3716206 2.68359375 101.5546875 C2.64169922 100.47832031 2.59980469 99.40195313 2.55664062 98.29296875 C2.51732422 97.16503906 2.47800781 96.03710938 2.4375 94.875 C2.39431641 93.73933594 2.35113281 92.60367188 2.30664062 91.43359375 C2.2003396 88.62252232 2.09830595 85.81136055 2 83 C1.67 83 1.34 83 1 83 C-0.25664671 55.34040373 -0.10550684 27.68178803 0 0 Z " fill="#934457" transform="translate(47,70)"/>
<path d="M0 0 C0.33 0 0.66 0 1 0 C0.32896234 12.72322726 -0.90523301 25.34475171 -2.27050781 38.00927734 C-2.53731979 40.49547986 -2.80093013 42.9819907 -3.0625 45.46875 C-3.14749756 46.27135254 -3.23249512 47.07395508 -3.32006836 47.90087891 C-3.99666354 54.49248506 -4.38340921 61.07746589 -4.65625 67.69726562 C-5.09759761 71.93771344 -5.7656326 74.90332133 -8.99609375 77.7734375 C-10.20458984 78.56621094 -10.20458984 78.56621094 -11.4375 79.375 C-12.324375 79.96667969 -13.21125 80.55835938 -14.125 81.16796875 C-17.93965274 83.59877328 -21.7785398 85.98878874 -25.65234375 88.32421875 C-28.00840932 90.00600266 -29.41463926 91.59841393 -31 94 C-30.70460812 90.45529741 -30.22373481 89.21784705 -27.625 86.6875 C-25 85 -25 85 -22 85 C-21.78472656 84.40574219 -21.56945312 83.81148438 -21.34765625 83.19921875 C-19.53612492 80.24300966 -17.50826656 79.36990312 -14.4375 77.8125 C-10.99777997 76.22480062 -10.99777997 76.22480062 -8 74 C-7.86585278 72.46721239 -7.79637593 70.92868536 -7.75390625 69.390625 C-7.72240479 68.41794678 -7.69090332 67.44526855 -7.65844727 66.44311523 C-7.61095337 64.86252319 -7.61095337 64.86252319 -7.5625 63.25 C-7.26319034 54.95706893 -6.83059234 46.70101138 -6.0625 38.4375 C-5.95047241 37.16471191 -5.95047241 37.16471191 -5.83618164 35.86621094 C-5.48674695 32.30247778 -5.02259372 29.07903228 -4.03515625 25.625 C-2.618438 20.66381306 -2.02664425 15.67258779 -1.375 10.5625 C-1.2409375 9.54478516 -1.106875 8.52707031 -0.96875 7.47851562 C-0.64112846 4.98625178 -0.3183416 2.49346322 0 0 Z " fill="#8952B6" transform="translate(166,74)"/>
<path d="M0 0 C3.16115776 1.36983503 3.9927092 1.9890638 6 5 C6.33957563 9.07490752 6.31332486 10.53001271 4 14 C3.34 14 2.68 14 2 14 C2 15.32 2 16.64 2 18 C1.01 18 0.02 18 -1 18 C-1 18.66 -1 19.32 -1 20 C-3.92708304 22.00274103 -6.03853108 23.09013771 -9.625 22.75390625 C-12.10919645 22.24224647 -14.55452402 21.67178095 -17 21 C-17 21.66 -17 22.32 -17 23 C-20.3 23 -23.6 23 -27 23 C-27 22.34 -27 21.68 -27 21 C-21.33251843 18.16625922 -16.30267439 17.36776168 -10 17 C-9.67 16.01 -9.34 15.02 -9 14 C-8.34 13.67 -7.68 13.34 -7 13 C-6.67 12.01 -6.34 11.02 -6 10 C-3.03 10.33 -0.06 10.66 3 11 C2.67 8.36 2.34 5.72 2 3 C1.34 3 0.68 3 0 3 C0 2.01 0 1.02 0 0 Z " fill="#D98C04" transform="translate(132,21)"/>
<path d="M0 0 C1.175625 0.5259375 1.175625 0.5259375 2.375 1.0625 C6.54329021 2.14050609 9.61682184 1.79757868 13.828125 1.19140625 C16 1 16 1 18 2 C18.33 2.99 18.66 3.98 19 5 C20.94074861 4.72382467 20.94074861 4.72382467 23 4 C23.66 3.01 24.32 2.02 25 1 C25 1.66 25 2.32 25 3 C25.598125 2.649375 26.19625 2.29875 26.8125 1.9375 C29 1 29 1 32 2 C31.34 2 30.68 2 30 2 C29.67 4.31 29.34 6.62 29 9 C28.34 9 27.68 9 27 9 C27 9.99 27 10.98 27 12 C27.66 12 28.32 12 29 12 C29 12.66 29 13.32 29 14 C30.98 14 32.96 14 35 14 C35.33 13.01 35.66 12.02 36 11 C36.66 11 37.32 11 38 11 C38.33 10.01 38.66 9.02 39 8 C39.99 8.33 40.98 8.66 42 9 C38.67692308 13.8 38.67692308 13.8 35.25 14.8125 C34.5075 14.874375 33.765 14.93625 33 15 C33 15.66 33 16.32 33 17 C31.68 17 30.36 17 29 17 C29 16.34 29 15.68 29 15 C28.01 15 27.02 15 26 15 C26 14.01 26 13.02 26 12 C22.7 11.67 19.4 11.34 16 11 C15.67 9.02 15.34 7.04 15 5 C14.37351562 5.08378906 13.74703125 5.16757812 13.1015625 5.25390625 C12.28429688 5.35574219 11.46703125 5.45757812 10.625 5.5625 C9.81289063 5.66691406 9.00078125 5.77132812 8.1640625 5.87890625 C6 6 6 6 4 5 C4 4.34 4 3.68 4 3 C2.68 2.67 1.36 2.34 0 2 C0 1.34 0 0.68 0 0 Z " fill="#F8C037" transform="translate(47,44)"/>
<path d="M0 0 C1.22589844 0.01353516 1.22589844 0.01353516 2.4765625 0.02734375 C3.10304687 0.03894531 3.72953125 0.05054687 4.375 0.0625 C4.045 0.7225 3.715 1.3825 3.375 2.0625 C1.065 2.0625 -1.245 2.0625 -3.625 2.0625 C-3.625 4.0425 -3.625 6.0225 -3.625 8.0625 C-2.305 8.3925 -0.985 8.7225 0.375 9.0625 C0.705 10.7125 1.035 12.3625 1.375 14.0625 C2.365 14.0625 3.355 14.0625 4.375 14.0625 C4.045 15.0525 3.715 16.0425 3.375 17.0625 C-3.375 18.1875 -3.375 18.1875 -5.625 17.0625 C-5.625 16.0725 -5.625 15.0825 -5.625 14.0625 C-7.275 14.0625 -8.925 14.0625 -10.625 14.0625 C-10.625 13.4025 -10.625 12.7425 -10.625 12.0625 C-11.615 11.7325 -12.605 11.4025 -13.625 11.0625 C-13.625 9.7425 -13.625 8.4225 -13.625 7.0625 C-19.07193314 6.96561779 -24.26404667 6.93387825 -29.625 8.0625 C-29.625 7.4025 -29.625 6.7425 -29.625 6.0625 C-24.4781808 2.89522665 -20.466744 2.71199536 -14.625 3.0625 C-14.625 3.7225 -14.625 4.3825 -14.625 5.0625 C-14.00625 5.18625 -13.3875 5.31 -12.75 5.4375 C-10.625 6.0625 -10.625 6.0625 -8.625 8.0625 C-6.55625966 8.7050235 -6.55625966 8.7050235 -4.625 9.0625 C-4.625 8.0725 -4.625 7.0825 -4.625 6.0625 C-5.285 6.0625 -5.945 6.0625 -6.625 6.0625 C-6.625 4.4125 -6.625 2.7625 -6.625 1.0625 C-4.21954362 -0.14022819 -2.67503047 -0.03821472 0 0 Z " fill="#DFBF6A" transform="translate(74.625,17.9375)"/>
<path d="M0 0 C0.33 0.99 0.66 1.98 1 3 C0.34 3 -0.32 3 -1 3 C-0.67 4.32 -0.34 5.64 0 7 C-0.99 7.495 -0.99 7.495 -2 8 C-2.33 8.99 -2.66 9.98 -3 11 C-2.01 11 -1.02 11 0 11 C0.103125 11.639375 0.20625 12.27875 0.3125 12.9375 C0.539375 13.618125 0.76625 14.29875 1 15 C1.99 15.33 2.98 15.66 4 16 C4 16.66 4 17.32 4 18 C4.66 18.33 5.32 18.66 6 19 C5.01 19 4.02 19 3 19 C3 18.34 3 17.68 3 17 C0.36 16.67 -2.28 16.34 -5 16 C-5 15.34 -5 14.68 -5 14 C-7.97 13.67 -10.94 13.34 -14 13 C-14 12.34 -14 11.68 -14 11 C-16.64 10.67 -19.28 10.34 -22 10 C-22 9.34 -22 8.68 -22 8 C-19.59454362 6.79727181 -18.05003047 6.89928528 -15.375 6.9375 C-14.14910156 6.95103516 -14.14910156 6.95103516 -12.8984375 6.96484375 C-11.95871094 6.98224609 -11.95871094 6.98224609 -11 7 C-11 6.34 -11 5.68 -11 5 C-7.35206816 3.72746564 -3.8063457 2.67170806 0 2 C0 1.34 0 0.68 0 0 Z " fill="#975685" transform="translate(131,39)"/>
<path d="M0 0 C1.98 0 3.96 0 6 0 C6 0.99 6 1.98 6 3 C7.98 3 9.96 3 12 3 C12.33 5.97 12.66 8.94 13 12 C11.68 11.67 10.36 11.34 9 11 C9 10.34 9 9.68 9 9 C8.34 9 7.68 9 7 9 C6.4225 9.825 5.845 10.65 5.25 11.5 C3 14 3 14 -0.25 14.3125 C-1.1575 14.209375 -2.065 14.10625 -3 14 C-3 13.34 -3 12.68 -3 12 C-3.66 12 -4.32 12 -5 12 C-5 11.01 -5 10.02 -5 9 C-4.34 9 -3.68 9 -3 9 C-2.67 6.69 -2.34 4.38 -2 2 C-1.34 2 -0.68 2 0 2 C0 1.34 0 0.68 0 0 Z " fill="#BE7D06" transform="translate(79,44)"/>
<path d="M0 0 C0.33 0 0.66 0 1 0 C1.90531099 5.56562108 2.2556573 11.04443763 2.46484375 16.67578125 C2.54347678 18.5761778 2.6222578 20.47656823 2.70117188 22.37695312 C2.81962715 25.32714631 2.93615047 28.27739166 3.04956055 31.2277832 C3.4648551 41.89661923 3.98082563 52.48703983 5.33177185 63.08430481 C6.13003958 69.42108154 6.20291296 75.61951479 6 82 C5.67 82 5.34 82 5 82 C4.95101562 81.31035156 4.90203125 80.62070313 4.8515625 79.91015625 C4.42681905 74.57157044 3.80925926 69.4617477 2.5 64.265625 C0.88637429 56.9538835 0.79049629 49.74949177 0.68359375 42.28515625 C0.66281265 41.07427841 0.64203156 39.86340057 0.62062073 38.61582947 C0.55546976 34.7647749 0.49640086 30.91365473 0.4375 27.0625 C0.394282 24.44465479 0.35066668 21.82681612 0.30664062 19.20898438 C0.19982381 12.80605805 0.09799465 6.4030671 0 0 Z " fill="#AD6577" transform="translate(28,85)"/>
<path d="M0 0 C0.33 0 0.66 0 1 0 C1 4.62 1 9.24 1 14 C0.34 14 -0.32 14 -1 14 C-0.99476318 14.72251953 -0.98952637 15.44503906 -0.98413086 16.18945312 C-0.90289524 29.21183091 -0.88539498 42.23307404 -1.3125 55.25 C-1.33497803 56.21744141 -1.35745605 57.18488281 -1.38061523 58.18164062 C-1.60872794 64.0536031 -2.46733921 68.66680084 -5 74 C-7.6875 75.5 -7.6875 75.5 -10 76 C-9.67 73.69 -9.34 71.38 -9 69 C-8.34 69 -7.68 69 -7 69 C-7 68.34 -7 67.68 -7 67 C-6.01 67 -5.02 67 -4 67 C-4.01015137 66.40276123 -4.02030273 65.80552246 -4.03076172 65.19018555 C-4.11888601 55.09455837 -3.68301736 45.02045295 -3.25537109 34.93579102 C-3.12488159 31.80966315 -3.00575666 28.68322277 -2.88671875 25.55664062 C-2.80278413 23.54424148 -2.71817199 21.53187046 -2.6328125 19.51953125 C-2.59938751 18.59743362 -2.56596252 17.675336 -2.53152466 16.72529602 C-2.26937356 10.9319949 -1.40692154 5.62875905 0 0 Z " fill="#F6CA6E" transform="translate(139,97)"/>
<path d="M0 0 C0.66 0 1.32 0 2 0 C2.05828635 4.20827473 2.093693 8.41644489 2.125 12.625 C2.15013672 14.40970703 2.15013672 14.40970703 2.17578125 16.23046875 C2.18222656 17.38417969 2.18867188 18.53789063 2.1953125 19.7265625 C2.20578613 20.78439941 2.21625977 21.84223633 2.22705078 22.93212891 C2 26 2 26 1.00927734 28.92236328 C-0.18709247 32.57050982 -0.28845094 35.6799677 -0.34375 39.515625 C-0.3583728 40.21266541 -0.37299561 40.90970581 -0.38806152 41.62786865 C-0.4499645 44.58734535 -0.4901138 47.54701531 -0.53173828 50.50683594 C-0.56538995 52.67665738 -0.61048409 54.84603083 -0.65625 57.015625 C-0.67494141 58.30758789 -0.69363281 59.59955078 -0.71289062 60.93066406 C-1 64 -1 64 -3 66 C-3.162058 48.97643067 -2.70797633 32.00837817 -2 15 C-1.34 15 -0.68 15 0 15 C0 10.05 0 5.1 0 0 Z " fill="#AA6B7C" transform="translate(140,96)"/>
<path d="M0 0 C5.75 -0.125 5.75 -0.125 8 1 C8 1.66 8 2.32 8 3 C9.65 3.33 11.3 3.66 13 4 C13 6.64 13 9.28 13 12 C11.02 12 9.04 12 7 12 C7 11.34 7 10.68 7 10 C4.69 9.67 2.38 9.34 0 9 C0 8.34 0 7.68 0 7 C-0.99 7 -1.98 7 -3 7 C-3 5.68 -3 4.36 -3 3 C-2.34 3 -1.68 3 -1 3 C-0.67 2.01 -0.34 1.02 0 0 Z " fill="#9D3196" transform="translate(51,69)"/>
<path d="M0 0 C0.99 0.33 1.98 0.66 3 1 C2.67 2.98 2.34 4.96 2 7 C1.01 7 0.02 7 -1 7 C-3.09291157 7.08571661 -3.09291157 7.08571661 -5 8 C-6.29660434 10.49034386 -6.29660434 10.49034386 -7 13 C-8.32 12.67 -9.64 12.34 -11 12 C-11 11.34 -11 10.68 -11 10 C-12.32 10 -13.64 10 -15 10 C-15 9.34 -15 8.68 -15 8 C-17.31 7.67 -19.62 7.34 -22 7 C-22 6.34 -22 5.68 -22 5 C-24.64 4.67 -27.28 4.34 -30 4 C-30 3.34 -30 2.68 -30 2 C-30.99 1.67 -31.98 1.34 -33 1 C-24.42857143 2 -24.42857143 2 -21 3 C-21 3.66 -21 4.32 -21 5 C-19.741875 5 -18.48375 5 -17.1875 5 C-14.79166667 5 -12.39583333 5 -10 5 C-10 5.66 -10 6.32 -10 7 C-8.9171875 6.0409375 -8.9171875 6.0409375 -7.8125 5.0625 C-5.01808816 3.01326465 -3.38336726 2.38667054 0 2 C0 1.34 0 0.68 0 0 Z " fill="#FAD039" transform="translate(130,57)"/>
<path d="M0 0 C3.32454983 0.57319825 4.73981645 1.54327875 7 4 C7.99 4.66 8.98 5.32 10 6 C10 7.32 10 8.64 10 10 C7.8125 11.8125 7.8125 11.8125 5 13 C2.1875 12.6875 2.1875 12.6875 0 12 C0.33 12.99 0.66 13.98 1 15 C0.34 15 -0.32 15 -1 15 C-1 14.34 -1 13.68 -1 13 C-1.66 13 -2.32 13 -3 13 C-3 12.01 -3 11.02 -3 10 C-4.32 9.67 -5.64 9.34 -7 9 C-6.01 9 -5.02 9 -4 9 C-4 8.01 -4 7.02 -4 6 C-3.34 6 -2.68 6 -2 6 C-1.34 4.02 -0.68 2.04 0 0 Z " fill="#FBD546" transform="translate(43,26)"/>
<path d="M0 0 C-0.33 0.99 -0.66 1.98 -1 3 C-5.455 3.495 -5.455 3.495 -10 4 C-10.309375 4.928125 -10.61875 5.85625 -10.9375 6.8125 C-11.625 8.875 -12.3125 10.9375 -13 13 C-12.01 13.99 -11.02 14.98 -10 16 C-11.65 15.67 -13.3 15.34 -15 15 C-15 14.34 -15 13.68 -15 13 C-16.65 12.67 -18.3 12.34 -20 12 C-20 11.34 -20 10.68 -20 10 C-21.32 9.67 -22.64 9.34 -24 9 C-23.67 8.01 -23.34 7.02 -23 6 C-20.0859375 4.68359375 -20.0859375 4.68359375 -16.375 3.4375 C-15.16585938 3.02371094 -13.95671875 2.60992187 -12.7109375 2.18359375 C-11.48632812 1.79300781 -10.26171875 1.40242188 -9 1 C-8.03368652 0.68699951 -8.03368652 0.68699951 -7.04785156 0.36767578 C-2.23881927 -1.11940963 -2.23881927 -1.11940963 0 0 Z " fill="#A069A9" transform="translate(31,40)"/>
<path d="M0 0 C0.33 0 0.66 0 1 0 C1.33 9.9 1.66 19.8 2 30 C-2.19075691 29.16184862 -4.28073843 28.49330151 -7.8125 26.4375 C-8.60269531 25.98246094 -9.39289062 25.52742188 -10.20703125 25.05859375 C-10.79871094 24.70925781 -11.39039063 24.35992187 -12 24 C-12 23.34 -12 22.68 -12 22 C-12.99 21.67 -13.98 21.34 -15 21 C-15 20.34 -15 19.68 -15 19 C-12.69 19.33 -10.38 19.66 -8 20 C-8 21.32 -8 22.64 -8 24 C-6.35 23.67 -4.7 23.34 -3 23 C-3 23.66 -3 24.32 -3 25 C-2.34 25 -1.68 25 -1 25 C-1.00523682 24.38479492 -1.01047363 23.76958984 -1.01586914 23.13574219 C-1.03669371 20.34050524 -1.04967759 17.54528464 -1.0625 14.75 C-1.07087891 13.78191406 -1.07925781 12.81382812 -1.08789062 11.81640625 C-1.09111328 10.88183594 -1.09433594 9.94726562 -1.09765625 8.984375 C-1.10289307 8.12553711 -1.10812988 7.26669922 -1.11352539 6.38183594 C-1.00539986 4.11329256 -0.63582423 2.17368285 0 0 Z " fill="#D4984D" transform="translate(49,149)"/>
<path d="M0 0 C3.55780196 0.60990891 6.6828589 1.5783681 10 3 C10 3.66 10 4.32 10 5 C12.41288955 6.35121815 14.5602075 7.1508251 17.25 7.875 C21.46573819 9.13972146 25.13296762 10.93088657 29 13 C29 13.33 29 13.66 29 14 C27.5199159 13.88637738 26.04089926 13.75877092 24.5625 13.625 C23.73878906 13.55539063 22.91507813 13.48578125 22.06640625 13.4140625 C21.38449219 13.27742188 20.70257813 13.14078125 20 13 C19.67 12.34 19.34 11.68 19 11 C16.87423218 10.53348793 16.87423218 10.53348793 14.4375 10.375 C13.61121094 10.30023438 12.78492187 10.22546875 11.93359375 10.1484375 C11.29550781 10.09945313 10.65742187 10.05046875 10 10 C10 9.34 10 8.68 10 8 C7.03 7.505 7.03 7.505 4 7 C3.67 5.68 3.34 4.36 3 3 C1.02 3.99 1.02 3.99 -1 5 C-1 5.99 -1 6.98 -1 8 C-2.32 8 -3.64 8 -5 8 C-4.1875 5.5625 -4.1875 5.5625 -3 3 C-2.01 2.67 -1.02 2.34 0 2 C0 1.34 0 0.68 0 0 Z " fill="#DCC078" transform="translate(102,7)"/>
<path d="M0 0 C0.33 0 0.66 0 1 0 C1.03758423 1.15786011 1.03758423 1.15786011 1.07592773 2.33911133 C1.19184007 5.83041181 1.31458824 9.32143922 1.4375 12.8125 C1.47681641 14.02744141 1.51613281 15.24238281 1.55664062 16.49414062 C1.59853516 17.65751953 1.64042969 18.82089844 1.68359375 20.01953125 C1.72025146 21.09307861 1.75690918 22.16662598 1.79467773 23.27270508 C1.89541847 26.09311553 1.89541847 26.09311553 3 29 C4.65 29 6.3 29 8 29 C5.74259377 31.33524782 3.7194239 33.18705073 1 35 C0.01 35 -0.98 35 -2 35 C-2.12485538 27.27283955 -1.95006108 19.59165735 -1.5625 11.875 C-1.52326416 11.04572998 -1.48402832 10.21645996 -1.44360352 9.36206055 C-1.40162842 8.58000244 -1.35965332 7.79794434 -1.31640625 6.9921875 C-1.27974854 6.29464355 -1.24309082 5.59709961 -1.20532227 4.87841797 C-1 3 -1 3 0 0 Z " fill="#EFBF44" transform="translate(121,144)"/>
<path d="M0 0 C0 0.66 0 1.32 0 2 C1.32 2 2.64 2 4 2 C4 1.34 4 0.68 4 0 C5.65 -0.33 7.3 -0.66 9 -1 C8.10825977 1.22935056 7.43225671 2.69218083 5.453125 4.1015625 C1.20431036 5.65765703 -3.32044648 5.43709268 -7.80078125 5.56640625 C-11.71051981 5.72389134 -14.62108292 5.98873983 -18 8 C-20.75 8.125 -20.75 8.125 -23 8 C-23 7.34 -23 6.68 -23 6 C-21.02 5.67 -19.04 5.34 -17 5 C-17 4.34 -17 3.68 -17 3 C-12.545 2.505 -12.545 2.505 -8 2 C-8 1.34 -8 0.68 -8 0 C-5.13822943 -1.43088528 -3.06624227 -0.59991697 0 0 Z " fill="#5F1627" transform="translate(76,59)"/>
<path d="M0 0 C4.75 0.875 4.75 0.875 7 2 C7.33 1.34 7.66 0.68 8 0 C9.5 1.375 9.5 1.375 11 3 C11 3.66 11 4.32 11 5 C11.66 5 12.32 5 13 5 C13 4.01 13 3.02 13 2 C14.98 2 16.96 2 19 2 C19 1.34 19 0.68 19 0 C19.99 0 20.98 0 22 0 C22 2.31 22 4.62 22 7 C14.55916509 8.0293155 8.71129749 8.72849861 2 5 C0.5 2.3125 0.5 2.3125 0 0 Z " fill="#FBBA2D" transform="translate(43,39)"/>
<path d="M0 0 C0 0.66 0 1.32 0 2 C0.66 2.33 1.32 2.66 2 3 C0.35 3 -1.3 3 -3 3 C-2.67 3.99 -2.34 4.98 -2 6 C-2.99 6 -3.98 6 -5 6 C-4.67 6.66 -4.34 7.32 -4 8 C-3.79201618 10.62868441 -3.62580793 13.24235262 -3.5 15.875 C-3.35752921 20.92475593 -3.35752921 20.92475593 -2.48852539 25.87255859 C-1.86716403 28.57847707 -1.88818152 31.08357796 -1.90234375 33.859375 C-1.90556641 34.97441406 -1.90878906 36.08945313 -1.91210938 37.23828125 C-1.92048828 38.39714844 -1.92886719 39.55601563 -1.9375 40.75 C-1.94201172 41.92433594 -1.94652344 43.09867188 -1.95117188 44.30859375 C-1.96294906 47.20578072 -1.97939674 50.10286454 -2 53 C-2.33 53 -2.66 53 -3 53 C-3.05534912 52.37544922 -3.11069824 51.75089844 -3.16772461 51.10742188 C-3.42284782 48.23814852 -3.68015928 45.36907529 -3.9375 42.5 C-4.02451172 41.51773438 -4.11152344 40.53546875 -4.20117188 39.5234375 C-4.5802116 35.31188496 -4.96539952 31.11462687 -5.546875 26.92578125 C-6.09624536 22.16615007 -6.2595026 17.47493221 -6.3125 12.6875 C-6.34150391 11.79482422 -6.37050781 10.90214844 -6.40039062 9.98242188 C-6.46365091 3.5152739 -6.46365091 3.5152739 -4.10546875 0.89453125 C-2 0 -2 0 0 0 Z " fill="#7A48AB" transform="translate(7,47)"/>
<path d="M0 0 C0.99 0 1.98 0 3 0 C3 0.66 3 1.32 3 2 C3.8971875 2.433125 3.8971875 2.433125 4.8125 2.875 C7 4 7 4 10 6 C9.40832031 5.96519531 8.81664063 5.93039063 8.20703125 5.89453125 C3.16742678 5.72188575 0.20984588 5.93829391 -4 9 C-4.66 9 -5.32 9 -6 9 C-6.66 10.65 -7.32 12.3 -8 14 C-8.66 14 -9.32 14 -10 14 C-10 12.35 -10 10.7 -10 9 C-9.34 9 -8.68 9 -8 9 C-8 8.34 -8 7.68 -8 7 C-8.825 7.165 -9.65 7.33 -10.5 7.5 C-14.41272317 8.05896045 -18.05183173 8.06807187 -22 8 C-22 7.67 -22 7.34 -22 7 C-16.01819249 5.52906373 -10.44749443 4.72973963 -4.28515625 4.5390625 C-1.81853496 4.2358797 -1.81853496 4.2358797 -0.68359375 1.9609375 C-0.45800781 1.31382813 -0.23242188 0.66671875 0 0 Z " fill="#D1A465" transform="translate(102,10)"/>
<path d="M0 0 C2.64 0.33 5.28 0.66 8 1 C8 1.66 8 2.32 8 3 C10.97 3.495 10.97 3.495 14 4 C14 4.66 14 5.32 14 6 C15.423125 5.9690625 15.423125 5.9690625 16.875 5.9375 C20 6 20 6 22 7 C22 7.66 22 8.32 22 9 C24.31 9.33 26.62 9.66 29 10 C29 10.66 29 11.32 29 12 C30.32 12 31.64 12 33 12 C33 12.66 33 13.32 33 14 C33.99 14 34.98 14 36 14 C36 15.32 36 16.64 36 18 C35.34 18 34.68 18 34 18 C33.34 17.01 32.68 16.02 32 15 C29.94074861 14.27617533 29.94074861 14.27617533 28 14 C28 13.34 28 12.68 28 12 C26.35 12 24.7 12 23 12 C23 11.34 23 10.68 23 10 C22.154375 9.9175 21.30875 9.835 20.4375 9.75 C17.06803052 9.01484302 14.97251099 7.78097527 12.078125 5.98828125 C7.99195055 4.04504415 3.44865751 3.61138874 -1 3 C-0.67 2.01 -0.34 1.02 0 0 Z " fill="#732238" transform="translate(86,55)"/>
<path d="M0 0 C3.85630673 0.53559816 6.02085954 1.51738295 9 4 C9.99 4.66 10.98 5.32 12 6 C11.67 7.65 11.34 9.3 11 11 C9.02 11.33 7.04 11.66 5 12 C5 12.66 5 13.32 5 14 C4.01 14 3.02 14 2 14 C2 13.34 2 12.68 2 12 C1.34 11.67 0.68 11.34 0 11 C1.98 10.67 3.96 10.34 6 10 C5.01 9.67 4.02 9.34 3 9 C3 8.34 3 7.68 3 7 C1.68 6.34 0.36 5.68 -1 5 C-0.67 3.35 -0.34 1.7 0 0 Z " fill="#EB9615" transform="translate(48,53)"/>
<path d="M0 0 C3.91978198 0.71667656 7.6853795 1.72526625 11.5 2.875 C12.6034375 3.20242187 13.706875 3.52984375 14.84375 3.8671875 C22.26546003 6.53092006 22.26546003 6.53092006 24 10 C24.0982189 12.41502939 24.12973926 14.83297881 24.125 17.25 C24.12886719 19.20679688 24.12886719 19.20679688 24.1328125 21.203125 C24.01490662 24.57384595 23.64650434 27.69564447 23 31 C22.67 31 22.34 31 22 31 C21.97301578 28.56242587 21.95316901 26.12515085 21.9375 23.6875 C21.92912109 22.99720703 21.92074219 22.30691406 21.91210938 21.59570312 C21.89692094 18.4516975 21.99806673 16.00579981 23 13 C22.34 13 21.68 13 21 13 C21 12.01 21 11.02 21 10 C19.68 9.67 18.36 9.34 17 9 C17 8.34 17 7.68 17 7 C16.175 6.87625 15.35 6.7525 14.5 6.625 C3.64646465 4.68686869 3.64646465 4.68686869 1 1.875 C0.67 1.25625 0.34 0.6375 0 0 Z " fill="#8358C0" transform="translate(145,42)"/>
<path d="M0 0 C2.97 0 5.94 0 9 0 C9.33 0.99 9.66 1.98 10 3 C13.3 3.33 16.6 3.66 20 4 C20 4.99 20 5.98 20 7 C17.69 7 15.38 7 13 7 C13 7.66 13 8.32 13 9 C11.35 9.33 9.7 9.66 8 10 C8.66 9.67 9.32 9.34 10 9 C9.34 7.35 8.68 5.7 8 4 C6.02 4 4.04 4 2 4 C2 4.66 2 5.32 2 6 C1.34 5.67 0.68 5.34 0 5 C0 3.35 0 1.7 0 0 Z " fill="#FBD151" transform="translate(112,17)"/>
<path d="M0 0 C7.63216783 0.52669908 7.63216783 0.52669908 11.375 4.26953125 C7.085 4.26953125 2.795 4.26953125 -1.625 4.26953125 C-1.625 4.92953125 -1.625 5.58953125 -1.625 6.26953125 C-5.37267661 7.79202487 -9.15104166 9.20661027 -12.953125 10.5859375 C-14.63030351 11.14586993 -14.63030351 11.14586993 -15.625 12.26953125 C-17.29117115 12.31016957 -18.95888095 12.31225225 -20.625 12.26953125 C-20.625 11.27953125 -20.625 10.28953125 -20.625 9.26953125 C-19.74457031 9.12257813 -18.86414063 8.975625 -17.95703125 8.82421875 C-11.47055661 7.90050459 -11.47055661 7.90050459 -6.03515625 4.69921875 C-5.69355469 4.14492188 -5.35195312 3.590625 -5 3.01953125 C-2.625 0.26953125 -2.625 0.26953125 0 0 Z " fill="#7D1571" transform="translate(87.625,57.73046875)"/>
<path d="M0 0 C1.32 0.33 2.64 0.66 4 1 C3.01 1.495 3.01 1.495 2 2 C1.59270772 4.32156597 1.25561323 6.6568787 1 9 C1.66 9 2.32 9 3 9 C3 9.66 3 10.32 3 11 C-1.75 12.125 -1.75 12.125 -4 11 C-4 10.01 -4 9.02 -4 8 C-6.64 8 -9.28 8 -12 8 C-11.67 7.01 -11.34 6.02 -11 5 C-10.01 5 -9.02 5 -8 5 C-8 4.34 -8 3.68 -8 3 C-5.36 2.67 -2.72 2.34 0 2 C0 1.34 0 0.68 0 0 Z " fill="#F4BA57" transform="translate(42,53)"/>
<path d="M0 0 C1.22589844 0.01353516 1.22589844 0.01353516 2.4765625 0.02734375 C3.41628906 0.04474609 3.41628906 0.04474609 4.375 0.0625 C4.045 0.7225 3.715 1.3825 3.375 2.0625 C1.065 2.0625 -1.245 2.0625 -3.625 2.0625 C-3.625 4.0425 -3.625 6.0225 -3.625 8.0625 C-2.305 8.3925 -0.985 8.7225 0.375 9.0625 C0.705 10.7125 1.035 12.3625 1.375 14.0625 C2.365 14.3925 3.355 14.7225 4.375 15.0625 C2.725 15.0625 1.075 15.0625 -0.625 15.0625 C-0.955 13.7425 -1.285 12.4225 -1.625 11.0625 C-2.6975 11.10375 -3.77 11.145 -4.875 11.1875 C-8.28247485 11.0739175 -9.83239631 10.84976636 -12.625 9.0625 C-12.625 8.0725 -12.625 7.0825 -12.625 6.0625 C-13.285 5.7325 -13.945 5.4025 -14.625 5.0625 C-11.75775314 5.63594937 -10.7635485 5.9239515 -8.625 8.0625 C-6.55625966 8.7050235 -6.55625966 8.7050235 -4.625 9.0625 C-4.625 8.0725 -4.625 7.0825 -4.625 6.0625 C-5.285 6.0625 -5.945 6.0625 -6.625 6.0625 C-6.625 4.4125 -6.625 2.7625 -6.625 1.0625 C-4.21954362 -0.14022819 -2.67503047 -0.03821472 0 0 Z " fill="#BE792F" transform="translate(74.625,17.9375)"/>
<path d="M0 0 C0 0.99 0 1.98 0 3 C-0.66 3 -1.32 3 -2 3 C-2.33 3.99 -2.66 4.98 -3 6 C-3.66 6 -4.32 6 -5 6 C-5.061875 6.7425 -5.12375 7.485 -5.1875 8.25 C-6.25742693 11.87129113 -7.86885512 12.98712115 -11 15 C-11.99 15 -12.98 15 -14 15 C-14 13.68 -14 12.36 -14 11 C-13.34 11 -12.68 11 -12 11 C-11.67 9.35 -11.34 7.7 -11 6 C-10.34 6 -9.68 6 -9 6 C-8.67 5.01 -8.34 4.02 -8 3 C-7.01 3 -6.02 3 -5 3 C-5 2.34 -5 1.68 -5 1 C-3 0 -3 0 0 0 Z " fill="#F3A61D" transform="translate(111,18)"/>
<path d="M0 0 C1.32 0 2.64 0 4 0 C4 0.66 4 1.32 4 2 C5.65 2 7.3 2 9 2 C9.3403125 2.9590625 9.3403125 2.9590625 9.6875 3.9375 C10.85250896 6.27193661 10.85250896 6.27193661 13.625 6.75 C14.40875 6.8325 15.1925 6.915 16 7 C16.33 7.99 16.66 8.98 17 10 C17.99 10 18.98 10 20 10 C20 10.66 20 11.32 20 12 C22.64 12 25.28 12 28 12 C28 12.99 28 13.98 28 15 C24.58368829 16.13376498 24.04334639 16.01749065 20.4375 14.5625 C13.06620166 10.60077224 6.4915261 5.24000665 0 0 Z " fill="#7D3EA3" transform="translate(60,182)"/>
<path d="M0 0 C1.65 0 3.3 0 5 0 C6.25664978 2.90600261 7 4.79604584 7 8 C5.35 8.33 3.7 8.66 2 9 C2 9.66 2 10.32 2 11 C0.35 11.33 -1.3 11.66 -3 12 C-3 12.66 -3 13.32 -3 14 C-4.32 14 -5.64 14 -7 14 C-6.67 13.01 -6.34 12.02 -6 11 C-5.34 11 -4.68 11 -4 11 C-3.67 10.01 -3.34 9.02 -3 8 C-2.34 8 -1.68 8 -1 8 C-0.690625 7.360625 -0.38125 6.72125 -0.0625 6.0625 C1 4 1 4 2 3 C1.34 2.67 0.68 2.34 0 2 C0 1.34 0 0.68 0 0 Z " fill="#FBBB2B" transform="translate(115,21)"/>
<path d="M0 0 C0.66 0 1.32 0 2 0 C3.33895632 1.66215268 4.67130142 3.32963607 6 5 C7.64295195 6.36244796 9.30824337 7.69864875 11 9 C12.8125 10.625 12.8125 10.625 14 12 C14 12.66 14 13.32 14 14 C13.34 14 12.68 14 12 14 C12 14.99 12 15.98 12 17 C13.65 17.33 15.3 17.66 17 18 C17 18.66 17 19.32 17 20 C16.01 20 15.02 20 14 20 C14 19.34 14 18.68 14 18 C13.01 18 12.02 18 11 18 C11 17.01 11 16.02 11 15 C10.01 14.67 9.02 14.34 8 14 C8 13.01 8 12.02 8 11 C7.01 11 6.02 11 5 11 C4.67 9.35 4.34 7.7 4 6 C2.68 5.67 1.36 5.34 0 5 C0 3.35 0 1.7 0 0 Z " fill="#AF6406" transform="translate(71,21)"/>
<path d="M0 0 C3.16115776 1.36983503 3.9927092 1.9890638 6 5 C6.33957563 9.07490752 6.31332486 10.53001271 4 14 C3.34 14 2.68 14 2 14 C2 15.32 2 16.64 2 18 C1.01 18 0.02 18 -1 18 C-1 18.66 -1 19.32 -1 20 C-3.8125 21.5625 -3.8125 21.5625 -7 23 C-7.99 22.67 -8.98 22.34 -10 22 C-9.67 21.34 -9.34 20.68 -9 20 C-8.01 20 -7.02 20 -6 20 C-6 19.34 -6 18.68 -6 18 C-2.535 17.505 -2.535 17.505 1 17 C1 15.02 1 13.04 1 11 C1.66 11 2.32 11 3 11 C2.67 8.36 2.34 5.72 2 3 C1.34 3 0.68 3 0 3 C0 2.01 0 1.02 0 0 Z " fill="#DF9E3F" transform="translate(132,21)"/>
<path d="M0 0 C2.6875 -0.3125 2.6875 -0.3125 5 0 C5 0.66 5 1.32 5 2 C6.65 2.33 8.3 2.66 10 3 C10.33 3.99 10.66 4.98 11 6 C11.66 6 12.32 6 13 6 C13 6.66 13 7.32 13 8 C9.7 8.33 6.4 8.66 3 9 C3.66 7.68 4.32 6.36 5 5 C1.89448334 5 0.64738916 5.5393715 -2 7 C-2.33 6.34 -2.66 5.68 -3 5 C-1.875 2.375 -1.875 2.375 0 0 Z " fill="#9E4593" transform="translate(109,67)"/>
<path d="M0 0 C0.33 1.32 0.66 2.64 1 4 C0.01 4 -0.98 4 -2 4 C-2 4.66 -2 5.32 -2 6 C-4.26882087 6.83919398 -6.53977027 7.67151724 -8.8125 8.5 C-9.45509766 8.73847656 -10.09769531 8.97695313 -10.75976562 9.22265625 C-13.64933739 10.27068746 -15.90076061 11 -19 11 C-18.67 9.68 -18.34 8.36 -18 7 C-15.36 6.67 -12.72 6.34 -10 6 C-9.67 5.01 -9.34 4.02 -9 3 C-7.35 3 -5.7 3 -4 3 C-4 2.34 -4 1.68 -4 1 C-2 0 -2 0 0 0 Z " fill="#A355A4" transform="translate(162,49)"/>
<path d="M0 0 C0.66 0.33 1.32 0.66 2 1 C2 2.32 2 3.64 2 5 C2.5775 5.268125 3.155 5.53625 3.75 5.8125 C6.0325868 7.01719859 7.9737942 8.40798115 10 10 C7.59454362 11.20272819 6.05003047 11.10071472 3.375 11.0625 C2.14910156 11.04896484 2.14910156 11.04896484 0.8984375 11.03515625 C-0.04128906 11.01775391 -0.04128906 11.01775391 -1 11 C-1 10.34 -1 9.68 -1 9 C-1.66 9 -2.32 9 -3 9 C-3.1875 5.625 -3.1875 5.625 -3 2 C-2.01 1.34 -1.02 0.68 0 0 Z " fill="#FCB32B" transform="translate(46,53)"/>
<path d="M0 0 C2 1 2 1 3 3 C3.09539873 4.48588023 3.13073484 5.97590565 3.1328125 7.46484375 C3.13410156 8.34720703 3.13539063 9.22957031 3.13671875 10.13867188 C3.13285156 11.06228516 3.12898437 11.98589844 3.125 12.9375 C3.12886719 13.85724609 3.13273438 14.77699219 3.13671875 15.72460938 C3.13542969 16.60826172 3.13414062 17.49191406 3.1328125 18.40234375 C3.13112061 19.61651978 3.13112061 19.61651978 3.12939453 20.85522461 C3 23 3 23 2 26 C1.77674186 28.05893621 1.59294241 30.12233653 1.4375 32.1875 C1.35371094 33.27417969 1.26992187 34.36085937 1.18359375 35.48046875 C1.12300781 36.31191406 1.06242188 37.14335938 1 38 C0.67 38 0.34 38 0 38 C0 25.46 0 12.92 0 0 Z " fill="#984F88" transform="translate(142,58)"/>
<path d="M0 0 C0.99 0.33 1.98 0.66 3 1 C0.93192614 3.75743181 -0.90962186 5.93274185 -3.6875 8 C-6.35802248 10.30964106 -6.71241619 11.54899426 -7 15 C-12.75 16.125 -12.75 16.125 -15 15 C-15 14.34 -15 13.68 -15 13 C-10.64705882 9 -10.64705882 9 -7 9 C-6.67 8.01 -6.34 7.02 -6 6 C-5.34 6 -4.68 6 -4 6 C-3.67 5.01 -3.34 4.02 -3 3 C-2.34 3 -1.68 3 -1 3 C-0.67 2.01 -0.34 1.02 0 0 Z " fill="#F3B32C" transform="translate(115,23)"/>
<path d="M0 0 C0.66 0 1.32 0 2 0 C1.67 1.32 1.34 2.64 1 4 C5.455 3.505 5.455 3.505 10 3 C10 3.66 10 4.32 10 5 C9.03900391 5.18175781 9.03900391 5.18175781 8.05859375 5.3671875 C2.95071067 6.35679227 -2.02250269 7.48510951 -7 9 C-7 9.66 -7 10.32 -7 11 C-7.66 11 -8.32 11 -9 11 C-9 9.35 -9 7.7 -9 6 C-7.35 5.67 -5.7 5.34 -4 5 C-3.67 4.01 -3.34 3.02 -3 2 C-2.01 2 -1.02 2 0 2 C0 1.34 0 0.68 0 0 Z " fill="#C87D08" transform="translate(112,33)"/>
<path d="M0 0 C3.3 0 6.6 0 10 0 C9.01 0.495 9.01 0.495 8 1 C8 1.66 8 2.32 8 3 C7.01 3.66 6.02 4.32 5 5 C6.2065625 5.309375 6.2065625 5.309375 7.4375 5.625 C8.283125 6.07875 9.12875 6.5325 10 7 C10.8125 10.125 10.8125 10.125 11 13 C10.01 13 9.02 13 8 13 C8 12.01 8 11.02 8 10 C7.443125 9.9175 6.88625 9.835 6.3125 9.75 C3.30285794 8.77389987 1.37845248 7.04811186 -1 5 C-0.67 3.35 -0.34 1.7 0 0 Z " fill="#C1750F" transform="translate(52,49)"/>
<path d="M0 0 C2.31 0.66 4.62 1.32 7 2 C7 3.65 7 5.3 7 7 C4.00519083 7.8723412 1.36424089 8.10829766 -1.75 8.0625 C-2.54921875 8.05347656 -3.3484375 8.04445313 -4.171875 8.03515625 C-4.77515625 8.02355469 -5.3784375 8.01195312 -6 8 C-5.34 7.67 -4.68 7.34 -4 7 C-3.67 6.01 -3.34 5.02 -3 4 C-2.34 3.67 -1.68 3.34 -1 3 C-0.67 2.01 -0.34 1.02 0 0 Z " fill="#CF8107" transform="translate(126,31)"/>
<path d="M0 0 C8.57142857 1 8.57142857 1 12 2 C12 2.66 12 3.32 12 4 C12.63808594 4.04898438 13.27617188 4.09796875 13.93359375 4.1484375 C14.75988281 4.22320312 15.58617188 4.29796875 16.4375 4.375 C17.26121094 4.44460937 18.08492187 4.51421875 18.93359375 4.5859375 C19.61550781 4.72257812 20.29742187 4.85921875 21 5 C21.33 5.66 21.66 6.32 22 7 C22.99 7.33 23.98 7.66 25 8 C25 8.66 25 9.32 25 10 C25.66 10.33 26.32 10.66 27 11 C26.01 11.495 26.01 11.495 25 12 C24.01 11.67 23.02 11.34 22 11 C22 10.34 22 9.68 22 9 C20.68 9 19.36 9 18 9 C18 8.34 18 7.68 18 7 C15.69 6.67 13.38 6.34 11 6 C11 5.34 11 4.68 11 4 C8.36 3.67 5.72 3.34 3 3 C3 2.34 3 1.68 3 1 C2.01 0.67 1.02 0.34 0 0 Z " fill="#DDA03C" transform="translate(97,58)"/>
<path d="M0 0 C0.66 0 1.32 0 2 0 C2 0.66 2 1.32 2 2 C2.66 2.33 3.32 2.66 4 3 C3.34 3 2.68 3 2 3 C2.33 3.99 2.66 4.98 3 6 C2.01 7.485 2.01 7.485 1 9 C1.33 9.33 1.66 9.66 2 10 C2.66 10.66 3.32 11.32 4 12 C3.625 14.125 3.625 14.125 3 16 C1.68 15.67 0.36 15.34 -1 15 C-1 13.68 -1 12.36 -1 11 C-1.99 11 -2.98 11 -4 11 C-3.47731534 8.23723823 -2.89130413 5.6739124 -2 3 C-1.34 3 -0.68 3 0 3 C0 2.01 0 1.02 0 0 Z " fill="#A06292" transform="translate(132,39)"/>
<path d="M0 0 C1.98 0 3.96 0 6 0 C6 0.99 6 1.98 6 3 C7.98 3 9.96 3 12 3 C11.67 3.99 11.34 4.98 11 6 C6.71 6 2.42 6 -2 6 C-2 4.68 -2 3.36 -2 2 C-1.34 2 -0.68 2 0 2 C0 1.34 0 0.68 0 0 Z " fill="#9A5C04" transform="translate(79,44)"/>
<path d="M0 0 C0.66 0.33 1.32 0.66 2 1 C2.37143859 7.71340856 2.12754875 12.96059551 -1 19 C-3.6875 20.5 -3.6875 20.5 -6 21 C-5.67 18.69 -5.34 16.38 -5 14 C-4.34 14 -3.68 14 -3 14 C-3 13.34 -3 12.68 -3 12 C-2.01 12 -1.02 12 0 12 C0 8.04 0 4.08 0 0 Z " fill="#DDAE73" transform="translate(135,152)"/>
<path d="M0 0 C0.66 0 1.32 0 2 0 C3.25 6.625 3.25 6.625 1 10 C0.01 10.33 -0.98 10.66 -2 11 C-3.20882096 13.00016466 -3.20882096 13.00016466 -4 15 C-4.66 15 -5.32 15 -6 15 C-6 14.01 -6 13.02 -6 12 C-5.34 12 -4.68 12 -4 12 C-4 9.36 -4 6.72 -4 4 C-4.66 4 -5.32 4 -6 4 C-6 3.01 -6 2.02 -6 1 C-4 1 -4 1 -2.375 2.5 C-1.92125 2.995 -1.4675 3.49 -1 4 C-0.67 2.68 -0.34 1.36 0 0 Z " fill="#EEAB3A" transform="translate(89,23)"/>
<path d="M0 0 C0.33 1.32 0.66 2.64 1 4 C-5.39666384 8.76347307 -11.84250448 13.26033699 -18.6875 17.359375 C-21.03247765 19.02304157 -22.42390786 20.61512373 -24 23 C-23.70460812 19.45529741 -23.22373481 18.21784705 -20.625 15.6875 C-18 14 -18 14 -15 14 C-14.67515625 13.1028125 -14.67515625 13.1028125 -14.34375 12.1875 C-12.09241315 8.52253303 -8.30510094 7.38983835 -4.53125 5.5625 C-1.85460607 3.91025066 -1.05304639 2.90841383 0 0 Z " fill="#844CAC" transform="translate(159,145)"/>
<path d="M0 0 C0 0.66 0 1.32 0 2 C-0.66 2 -1.32 2 -2 2 C-2 3.65 -2 5.3 -2 7 C-2.66 6.34 -3.32 5.68 -4 5 C-4 4.01 -4 3.02 -4 2 C-5.32 2 -6.64 2 -8 2 C-8 3.32 -8 4.64 -8 6 C-8.99 6 -9.98 6 -11 6 C-11 5.34 -11 4.68 -11 4 C-14.96 4 -18.92 4 -23 4 C-23 3.67 -23 3.34 -23 3 C-21.865625 2.855625 -20.73125 2.71125 -19.5625 2.5625 C-16.19222799 2.38828522 -16.19222799 2.38828522 -15 1 C-10.03441439 0.15323698 -5.03211565 -0.12902861 0 0 Z " fill="#F9C65B" transform="translate(94,17)"/>
<path d="M0 0 C0.99 0 1.98 0 3 0 C3.38218767 1.65614657 3.71395102 3.32457024 4 5 C3 6 3 6 0.93359375 6.09765625 C0.10988281 6.08605469 -0.71382812 6.07445312 -1.5625 6.0625 C-2.80193359 6.04896484 -2.80193359 6.04896484 -4.06640625 6.03515625 C-4.70449219 6.02355469 -5.34257813 6.01195312 -6 6 C-6 6.66 -6 7.32 -6 8 C-8.64 8.33 -11.28 8.66 -14 9 C-14 9.66 -14 10.32 -14 11 C-14.99 11.33 -15.98 11.66 -17 12 C-17.66 12.66 -18.32 13.32 -19 14 C-18.67 12.68 -18.34 11.36 -18 10 C-17.01 10 -16.02 10 -15 10 C-15 9.34 -15 8.68 -15 8 C-9.45108785 5.18150494 -5.258654 3.4673486 1 4 C0.67 2.68 0.34 1.36 0 0 Z " fill="#A66B77" transform="translate(48,47)"/>
<path d="M0 0 C3.3 0.33 6.6 0.66 10 1 C10 1.66 10 2.32 10 3 C12.97 3.33 15.94 3.66 19 4 C19 4.66 19 5.32 19 6 C15.7 5.34 12.4 4.68 9 4 C9 4.99 9 5.98 9 7 C7.02 6.34 5.04 5.68 3 5 C3 4.01 3 3.02 3 2 C2.01 2 1.02 2 0 2 C0 1.34 0 0.68 0 0 Z " fill="#F5AE23" transform="translate(107,49)"/>
<path d="M0 0 C1.32 0 2.64 0 4 0 C4 0.99 4 1.98 4 3 C4.66 3 5.32 3 6 3 C6 3.66 6 4.32 6 5 C6.99 5.33 7.98 5.66 9 6 C9 6.66 9 7.32 9 8 C9.66 8 10.32 8 11 8 C11.33 8.99 11.66 9.98 12 11 C10.68 10.67 9.36 10.34 8 10 C8 9.34 8 8.68 8 8 C5.36 7.67 2.72 7.34 0 7 C-1.125 2.25 -1.125 2.25 0 0 Z " fill="#A66673" transform="translate(36,36)"/>
<path d="M0 0 C0.66 0.33 1.32 0.66 2 1 C-0.07375945 4.11063917 -0.61210489 4.80627857 -4 6 C-7.453125 6.1953125 -7.453125 6.1953125 -11.25 6.125 C-12.51328125 6.10695313 -13.7765625 6.08890625 -15.078125 6.0703125 C-16.04234375 6.04710938 -17.0065625 6.02390625 -18 6 C-17.67 5.34 -17.34 4.68 -17 4 C-14.35139573 3.40644386 -11.70802678 3.25790731 -9 3 C-9 2.34 -9 1.68 -9 1 C-8.34 1 -7.68 1 -7 1 C-7 1.66 -7 2.32 -7 3 C-5.68 3 -4.36 3 -3 3 C-3 2.34 -3 1.68 -3 1 C-2.01 0.67 -1.02 0.34 0 0 Z " fill="#591147" transform="translate(83,58)"/>
<path d="M0 0 C1.175625 0.5259375 1.175625 0.5259375 2.375 1.0625 C7.13169713 2.29268029 11.18890305 1.70359916 16 1 C16 3.64 16 6.28 16 9 C15.67 7.68 15.34 6.36 15 5 C14.37351562 5.08378906 13.74703125 5.16757812 13.1015625 5.25390625 C12.28429688 5.35574219 11.46703125 5.45757812 10.625 5.5625 C9.81289063 5.66691406 9.00078125 5.77132812 8.1640625 5.87890625 C6 6 6 6 4 5 C4 4.34 4 3.68 4 3 C2.68 2.67 1.36 2.34 0 2 C0 1.34 0 0.68 0 0 Z " fill="#EEA017" transform="translate(47,44)"/>
<path d="M0 0 C1.8125 1.3125 1.8125 1.3125 2.5625 3.4375 C2.68625 4.365625 2.68625 4.365625 2.8125 5.3125 C1.8225 5.8075 1.8225 5.8075 0.8125 6.3125 C0.4825 7.3025 0.1525 8.2925 -0.1875 9.3125 C-1.1775 8.9825 -2.1675 8.6525 -3.1875 8.3125 C-3.5175 6.6625 -3.8475 5.0125 -4.1875 3.3125 C-4.8475 3.3125 -5.5075 3.3125 -6.1875 3.3125 C-6.1875 2.3225 -6.1875 1.3325 -6.1875 0.3125 C-3.74242066 -0.56074262 -2.51049678 -0.78901327 0 0 Z " fill="#FAD94D" transform="translate(80.1875,34.6875)"/>
<path d="M0 0 C5.75 -0.125 5.75 -0.125 8 1 C8 1.66 8 2.32 8 3 C7.071875 3.1546875 7.071875 3.1546875 6.125 3.3125 C3.63473516 3.87525373 3.63473516 3.87525373 2 7 C-0.625 7.1875 -0.625 7.1875 -3 7 C-3 5.68 -3 4.36 -3 3 C-2.34 3 -1.68 3 -1 3 C-0.67 2.01 -0.34 1.02 0 0 Z " fill="#9A328A" transform="translate(51,69)"/>
<path d="M0 0 C2.08410658 0.08733973 4.16734669 0.19552278 6.25 0.3125 C7.99023438 0.39951172 7.99023438 0.39951172 9.765625 0.48828125 C13.10819638 1.01711803 14.5497057 1.73772333 17 4 C13.6477382 4.06573062 10.54304868 4.11107814 7.25 3.4375 C4.84506244 2.77859647 4.84506244 2.77859647 2 4 C1.34 3.67 0.68 3.34 0 3 C-0.33 3.66 -0.66 4.32 -1 5 C-0.67 3.35 -0.34 1.7 0 0 Z " fill="#923A81" transform="translate(89,61)"/>
<path d="M0 0 C2.68092691 2.68092691 2.38670257 4.39167363 2.625 8.125 C2.69976562 9.22070312 2.77453125 10.31640625 2.8515625 11.4453125 C2.90054687 12.28835937 2.94953125 13.13140625 3 14 C4.32 14.33 5.64 14.66 7 15 C7.33 16.32 7.66 17.64 8 19 C4.34683329 17.75023244 3.21934164 17.32901247 1 14 C-0.09479394 9.29238604 -0.08280089 4.80245159 0 0 Z " fill="#7142A1" transform="translate(8,134)"/>
<path d="M0 0 C0.99 0.66 1.98 1.32 3 2 C2 5 2 5 -1.375 6.6875 C-5 8 -5 8 -8 8 C-7.875 6.1875 -7.875 6.1875 -7 4 C-4 2.3125 -4 2.3125 -1 1 C-0.67 0.67 -0.34 0.34 0 0 Z " fill="#A64FA4" transform="translate(112,70)"/>
<path d="M0 0 C0.7734375 0.433125 0.7734375 0.433125 1.5625 0.875 C4.07727675 2.11875221 4.07727675 2.11875221 7.25 2.875 C11.46573819 4.13972146 15.13296762 5.93088657 19 8 C19 8.33 19 8.66 19 9 C17.5199159 8.88637738 16.04089926 8.75877092 14.5625 8.625 C13.73878906 8.55539063 12.91507813 8.48578125 12.06640625 8.4140625 C11.38449219 8.27742188 10.70257813 8.14078125 10 8 C9.67 7.34 9.34 6.68 9 6 C7.865625 5.71125 6.73125 5.4225 5.5625 5.125 C2 4 2 4 0.5625 1.875 C0.376875 1.25625 0.19125 0.6375 0 0 Z " fill="#CDB891" transform="translate(112,12)"/>
<path d="M0 0 C2.45840605 -0.02691685 4.91651882 -0.04679802 7.375 -0.0625 C8.07367188 -0.07087891 8.77234375 -0.07925781 9.4921875 -0.08789062 C14.7734375 -0.11328125 14.7734375 -0.11328125 17 1 C17 1.66 17 2.32 17 3 C16.43152344 2.91621094 15.86304687 2.83242187 15.27734375 2.74609375 C10.25580959 2.0838213 5.95654656 1.86412475 1 3 C0.67 3.66 0.34 4.32 0 5 C-0.66 5 -1.32 5 -2 5 C-2 4.01 -2 3.02 -2 2 C-1.34 2 -0.68 2 0 2 C0 1.34 0 0.68 0 0 Z " fill="#7B1D5C" transform="translate(50,67)"/>
<path d="M0 0 C3.63970867 -0.42820102 5.04569463 0.02586488 8.3125 1.875 C9.199375 2.57625 10.08625 3.2775 11 4 C11 4.66 11 5.32 11 6 C11.61875 6.103125 12.2375 6.20625 12.875 6.3125 C15 7 15 7 17 10 C15.35 9.67 13.7 9.34 12 9 C12 8.34 12 7.68 12 7 C11.319375 6.7525 10.63875 6.505 9.9375 6.25 C6.43134917 4.75802092 3.28379632 2.93164489 0 1 C0 0.67 0 0.34 0 0 Z " fill="#7841A4" transform="translate(16,153)"/>
<path d="M0 0 C0.99 0.33 1.98 0.66 3 1 C-0.32307692 5.8 -0.32307692 5.8 -3.75 6.8125 C-4.4925 6.874375 -5.235 6.93625 -6 7 C-6 7.66 -6 8.32 -6 9 C-7.32 9 -8.64 9 -10 9 C-10 8.34 -10 7.68 -10 7 C-10.99 6.67 -11.98 6.34 -13 6 C-12.67 5.34 -12.34 4.68 -12 4 C-11.34 4 -10.68 4 -10 4 C-10 4.66 -10 5.32 -10 6 C-8.02 6 -6.04 6 -4 6 C-3.67 5.01 -3.34 4.02 -3 3 C-2.34 3 -1.68 3 -1 3 C-0.67 2.01 -0.34 1.02 0 0 Z " fill="#D89A38" transform="translate(86,52)"/>
<path d="M0 0 C4 4.35294118 4 4.35294118 4 8 C2.68 8 1.36 8 0 8 C0 7.01 0 6.02 0 5 C-1.65 5 -3.3 5 -5 5 C-4.625 3.0625 -4.625 3.0625 -4 1 C-2 0 -2 0 0 0 Z " fill="#EDB427" transform="translate(85,39)"/>
<path d="M0 0 C2.64 0.33 5.28 0.66 8 1 C8 1.66 8 2.32 8 3 C8.99 3 9.98 3 11 3 C11 4.98 11 6.96 11 9 C10.01 9.33 9.02 9.66 8 10 C8 8.35 8 6.7 8 5 C5.36 4.34 2.72 3.68 0 3 C0 2.01 0 1.02 0 0 Z " fill="#9A3397" transform="translate(72,84)"/>
<path d="M0 0 C0.33 0 0.66 0 1 0 C1.33 2.97 1.66 5.94 2 9 C2.763125 8.649375 3.52625 8.29875 4.3125 7.9375 C7 7 7 7 10 8 C8.90241493 8.84198307 7.79664683 9.67330671 6.6875 10.5 C6.07261719 10.9640625 5.45773438 11.428125 4.82421875 11.90625 C3 13 3 13 0 13 C0 8.71 0 4.42 0 0 Z " fill="#BC896F" transform="translate(119,166)"/>
<path d="M0 0 C-1.50412782 3.00825564 -3.86048301 3.30662971 -6.921875 4.40234375 C-9.35135321 5.10104707 -11.48568864 5.23571669 -14 5 C-14 4.34 -14 3.68 -14 3 C-12.42274653 2.29866401 -10.83788667 1.614417 -9.25 0.9375 C-7.92742187 0.36322266 -7.92742187 0.36322266 -6.578125 -0.22265625 C-3.84743691 -1.04600008 -2.63098653 -0.9773992 0 0 Z " fill="#A44DA8" transform="translate(100,85)"/>
<path d="M0 0 C4.04704581 0.72404774 7.89070402 1.83446287 11.8125 3.0625 C13.55466797 3.60583984 13.55466797 3.60583984 15.33203125 4.16015625 C16.65267578 4.57587891 16.65267578 4.57587891 18 5 C17.67 5.99 17.34 6.98 17 8 C14.72456133 7.43489766 12.45471548 6.84724015 10.1875 6.25 C8.29064453 5.76273438 8.29064453 5.76273438 6.35546875 5.265625 C2.90475444 3.96407502 1.7799672 3.14968174 0 0 Z " fill="#996DC0" transform="translate(145,42)"/>
<path d="M0 0 C0.33 0 0.66 0 1 0 C1 4.62 1 9.24 1 14 C0.34 14 -0.32 14 -1 14 C-1 17.63 -1 21.26 -1 25 C-1.33 25 -1.66 25 -2 25 C-2.3690205 8.29157175 -2.3690205 8.29157175 0 0 Z " fill="#FAD160" transform="translate(139,97)"/>
<path d="M0 0 C0.97066406 0.08894531 1.94132812 0.17789063 2.94140625 0.26953125 C3.90949219 0.34558594 4.87757812 0.42164063 5.875 0.5 C8.73064325 1.13223008 9.71245614 1.82905502 11.50390625 4.08203125 C9.40002056 4.13605399 7.29573911 4.17483381 5.19140625 4.20703125 C3.43376953 4.24183594 3.43376953 4.24183594 1.640625 4.27734375 C-1.49609375 4.08203125 -1.49609375 4.08203125 -4.49609375 2.08203125 C-2.49609375 0.08203125 -2.49609375 0.08203125 0 0 Z " fill="#751F67" transform="translate(87.49609375,57.91796875)"/>
<path d="M0 0 C0.33 2.31 0.66 4.62 1 7 C-0.32 6.67 -1.64 6.34 -3 6 C-3 5.34 -3 4.68 -3 4 C-5.97 3.67 -8.94 3.34 -12 3 C-12 2.34 -12 1.68 -12 1 C-10.18755015 0.83278881 -8.37503867 0.66624559 -6.5625 0.5 C-5.55316406 0.4071875 -4.54382813 0.314375 -3.50390625 0.21875 C-1 0 -1 0 0 0 Z " fill="#B3710A" transform="translate(91,49)"/>
<path d="M0 0 C2.31386295 0.28064918 4.62609008 0.57481689 6.9375 0.875 C8.86916016 1.11863281 8.86916016 1.11863281 10.83984375 1.3671875 C12.40412109 1.68042969 12.40412109 1.68042969 14 2 C14.33 2.66 14.66 3.32 15 4 C15.99 4.33 16.98 4.66 18 5 C18 5.66 18 6.32 18 7 C18.66 7.33 19.32 7.66 20 8 C19.01 8 18.02 8 17 8 C17 7.34 17 6.68 17 6 C14.36 5.67 11.72 5.34 9 5 C9 4.34 9 3.68 9 3 C6.03 2.67 3.06 2.34 0 2 C0 1.34 0 0.68 0 0 Z " fill="#A7595F" transform="translate(117,50)"/>
<path d="M0 0 C2.97851562 0.43945312 2.97851562 0.43945312 5.95703125 0.87890625 C8.2025342 1.13904799 8.2025342 1.13904799 11 0 C11.33 0.66 11.66 1.32 12 2 C12.99 2.33 13.98 2.66 15 3 C15 3.66 15 4.32 15 5 C15.99 5.66 16.98 6.32 18 7 C15.03 6.505 15.03 6.505 12 6 C12 5.34 12 4.68 12 4 C10.7625 3.855625 9.525 3.71125 8.25 3.5625 C5.43495501 3.21311498 2.7298503 2.79620634 0 2 C0 1.34 0 0.68 0 0 Z " fill="#F9BF2C" transform="translate(97,56)"/>
<path d="M0 0 C0.99 0 1.98 0 3 0 C3 0.66 3 1.32 3 2 C2.01 2 1.02 2 0 2 C-0.103125 3.11375 -0.20625 4.2275 -0.3125 5.375 C-0.539375 6.57125 -0.76625 7.7675 -1 9 C-1.99 9.66 -2.98 10.32 -4 11 C-4.99 10.67 -5.98 10.34 -7 10 C-5.25 6.125 -5.25 6.125 -3 5 C-2.2884375 3.7315625 -2.2884375 3.7315625 -1.5625 2.4375 C-1.046875 1.633125 -0.53125 0.82875 0 0 Z " fill="#A47B9E" transform="translate(36,33)"/>
<path d="M0 0 C1.32 0 2.64 0 4 0 C4 1.32 4 2.64 4 4 C5.32 4.33 6.64 4.66 8 5 C8 5.33 8 5.66 8 6 C5.36 6.33 2.72 6.66 0 7 C-1.04449911 3.86650268 -0.93423645 3.01031744 0 0 Z " fill="#F9D141" transform="translate(57,25)"/>
<path d="M0 0 C3.85630673 0.53559816 6.02085954 1.51738295 9 4 C9.99 4.66 10.98 5.32 12 6 C12 6.66 12 7.32 12 8 C10.68 8 9.36 8 8 8 C8 7.34 8 6.68 8 6 C6.35 5.67 4.7 5.34 3 5 C3 4.01 3 3.02 3 2 C2.01 2 1.02 2 0 2 C0 1.34 0 0.68 0 0 Z " fill="#DA850B" transform="translate(48,53)"/>
<path d="M0 0 C0.85659135 3.08084955 1.26941369 6.06792001 1.5625 9.25 C1.64628906 10.14203125 1.73007812 11.0340625 1.81640625 11.953125 C1.87699219 12.62859375 1.93757813 13.3040625 2 14 C1.34 14 0.68 14 0 14 C0 13.34 0 12.68 0 12 C-0.66 12 -1.32 12 -2 12 C-2 11.01 -2 10.02 -2 9 C-3.32 8.67 -4.64 8.34 -6 8 C-5.01 8 -4.02 8 -3 8 C-3 7.01 -3 6.02 -3 5 C-2.34 5 -1.68 5 -1 5 C-0.67 3.35 -0.34 1.7 0 0 Z " fill="#D6AC5D" transform="translate(42,27)"/>
<path d="M0 0 C1.98 0 3.96 0 6 0 C6 0.66 6 1.32 6 2 C4.02 2.33 2.04 2.66 0 3 C0 3.66 0 4.32 0 5 C-2.31 5.33 -4.62 5.66 -7 6 C-6.67 5.01 -6.34 4.02 -6 3 C-4.02 2.67 -2.04 2.34 0 2 C0 1.34 0 0.68 0 0 Z " fill="#A44EA8" transform="translate(112,76)"/>
<path d="M0 0 C1.22589844 0.01353516 1.22589844 0.01353516 2.4765625 0.02734375 C3.41628906 0.04474609 3.41628906 0.04474609 4.375 0.0625 C3.715 1.3825 3.055 2.7025 2.375 4.0625 C-0.595 3.7325 -3.565 3.4025 -6.625 3.0625 C-6.625 2.4025 -6.625 1.7425 -6.625 1.0625 C-4.21954362 -0.14022819 -2.67503047 -0.03821472 0 0 Z " fill="#7C4132" transform="translate(115.625,45.9375)"/>
<path d="M0 0 C1.98 0.495 1.98 0.495 4 1 C5 4 5 4 3.75 6.6875 C3.1725 7.450625 2.595 8.21375 2 9 C1.01 9 0.02 9 -1 9 C-0.67 6.03 -0.34 3.06 0 0 Z " fill="#F0CA47" transform="translate(43,26)"/>
<path d="M0 0 C2.475 0.495 2.475 0.495 5 1 C5 1.66 5 2.32 5 3 C6.32 3.66 7.64 4.32 9 5 C6.04335481 6.4783226 3.25770263 6.06032783 0 6 C0 4.02 0 2.04 0 0 Z " fill="#F8AC18" transform="translate(47,58)"/>
<path d="M0 0 C0.33 1.32 0.66 2.64 1 4 C-1.64 4.66 -4.28 5.32 -7 6 C-7 5.34 -7 4.68 -7 4 C-4.69 3.34 -2.38 2.68 0 2 C0 1.34 0 0.68 0 0 Z M-12 4 C-11.34 4.33 -10.68 4.66 -10 5 C-10 5.66 -10 6.32 -10 7 C-9.01 6.67 -8.02 6.34 -7 6 C-7.33 6.99 -7.66 7.98 -8 9 C-9.9375 8.6875 -9.9375 8.6875 -12 8 C-12.33 7.01 -12.66 6.02 -13 5 C-12.67 4.67 -12.34 4.34 -12 4 Z " fill="#FCC929" transform="translate(130,57)"/>
<path d="M0 0 C2.64 0.33 5.28 0.66 8 1 C8 1.66 8 2.32 8 3 C9.65 3.33 11.3 3.66 13 4 C13 4.66 13 5.32 13 6 C8.38 5.01 3.76 4.02 -1 3 C-0.67 2.01 -0.34 1.02 0 0 Z " fill="#5A1425" transform="translate(86,55)"/>
<path d="M0 0 C2.31 0 4.62 0 7 0 C4.92141021 2.18092036 2.78143382 3.96390469 0.3125 5.6875 C-0.31011719 6.12449219 -0.93273437 6.56148437 -1.57421875 7.01171875 C-2.04472656 7.33785156 -2.51523438 7.66398438 -3 8 C-3.66 7.67 -4.32 7.34 -5 7 C-3 4 -3 4 0 3 C0 2.01 0 1.02 0 0 Z " fill="#8248A8" transform="translate(105,180)"/>
<path d="M0 0 C0.66 0 1.32 0 2 0 C2 0.66 2 1.32 2 2 C3.65 2 5.3 2 7 2 C7 2.33 7 2.66 7 3 C4.36 3 1.72 3 -1 3 C-1 3.66 -1 4.32 -1 5 C-3.31 5 -5.62 5 -8 5 C-8 4.34 -8 3.68 -8 3 C-5.29120665 1.64560332 -2.99066732 1.93498549 0 2 C0 1.34 0 0.68 0 0 Z " fill="#F5B11D" transform="translate(100,44)"/>
<path d="M0 0 C0.99 0.33 1.98 0.66 3 1 C2.67 2.65 2.34 4.3 2 6 C0.35 6.33 -1.3 6.66 -3 7 C-2.625 4.0625 -2.625 4.0625 -2 1 C-1.34 0.67 -0.68 0.34 0 0 Z " fill="#FCD74D" transform="translate(68,43)"/>
<path d="M0 0 C-0.33 0.99 -0.66 1.98 -1 3 C-7.435 3.495 -7.435 3.495 -14 4 C-11.68516093 1.68516093 -10.10977477 1.2391044 -7 0.3125 C-6.113125 0.04050781 -5.22625 -0.23148438 -4.3125 -0.51171875 C-2 -1 -2 -1 0 0 Z " fill="#8465AE" transform="translate(31,40)"/>
<path d="M0 0 C3.96 0.33 7.92 0.66 12 1 C12 1.99 12 2.98 12 4 C9.5332355 4.88336837 8.36140628 5.1312406 5.859375 4.22265625 C5.16328125 3.83980469 4.4671875 3.45695313 3.75 3.0625 C3.04359375 2.68222656 2.3371875 2.30195313 1.609375 1.91015625 C1.07828125 1.60980469 0.5471875 1.30945313 0 1 C0 0.67 0 0.34 0 0 Z " fill="#773CAA" transform="translate(76,193)"/>
<path d="M0 0 C1.65 0 3.3 0 5 0 C5 0.66 5 1.32 5 2 C7.31 2 9.62 2 12 2 C12 2.33 12 2.66 12 3 C9.69 3 7.38 3 5 3 C5 3.66 5 4.32 5 5 C3.35 5.33 1.7 5.66 0 6 C0.66 5.67 1.32 5.34 2 5 C1.34 3.35 0.68 1.7 0 0 Z " fill="#FBC63D" transform="translate(120,21)"/>
<path d="M0 0 C0.33 0.99 0.66 1.98 1 3 C-0.36125 3.6496875 -0.36125 3.6496875 -1.75 4.3125 C-4.93777831 5.83388114 -4.93777831 5.83388114 -7.1875 7.75 C-7.785625 8.1625 -8.38375 8.575 -9 9 C-9.99 8.67 -10.98 8.34 -12 8 C-11.67 7.01 -11.34 6.02 -11 5 C-7.41388869 3.53295446 -3.8088684 2.67215325 0 2 C0 1.34 0 0.68 0 0 Z " fill="#966158" transform="translate(131,39)"/>
<path d="M0 0 C3.16115776 1.36983503 3.9927092 1.9890638 6 5 C6.3125 8 6.3125 8 6 11 C5.01 11.99 4.02 12.98 3 14 C3.33 10.7 3.66 7.4 4 4 C2.68 3.67 1.36 3.34 0 3 C0 2.01 0 1.02 0 0 Z " fill="#AD8B7E" transform="translate(132,21)"/>
<path d="M0 0 C2.31 0.33 4.62 0.66 7 1 C7 2.32 7 3.64 7 5 C7.66 5 8.32 5 9 5 C8.67 5.99 8.34 6.98 8 8 C5.5 6.625 5.5 6.625 3 5 C3 4.34 3 3.68 3 3 C2.01 2.67 1.02 2.34 0 2 C0 1.34 0 0.68 0 0 Z " fill="#C18C6E" transform="translate(34,168)"/>
<path d="M0 0 C0.99 0 1.98 0 3 0 C3 0.66 3 1.32 3 2 C4.32 2 5.64 2 7 2 C7 2.66 7 3.32 7 4 C7.99 4 8.98 4 10 4 C10 5.32 10 6.64 10 8 C9.34 8 8.68 8 8 8 C7.34 7.01 6.68 6.02 6 5 C3.94074861 4.27617533 3.94074861 4.27617533 2 4 C2 3.34 2 2.68 2 2 C1.01 1.67 0.02 1.34 -1 1 C-0.67 0.67 -0.34 0.34 0 0 Z " fill="#6D1E2F" transform="translate(112,65)"/>
<path d="M0 0 C-1.625 2.5 -1.625 2.5 -4 5 C-7.25 5.3125 -7.25 5.3125 -10 5 C-10 4.34 -10 3.68 -10 3 C-3.375 -1.125 -3.375 -1.125 0 0 Z " fill="#D28F05" transform="translate(86,53)"/>
<path d="M0 0 C0.99 0 1.98 0 3 0 C3.38218767 1.65614657 3.71395102 3.32457024 4 5 C3 6 3 6 1.15234375 6.09765625 C-0.8984375 6.06510417 -2.94921875 6.03255208 -5 6 C-4.67 5.34 -4.34 4.68 -4 4 C-2.35 4 -0.7 4 1 4 C0.67 2.68 0.34 1.36 0 0 Z " fill="#A36851" transform="translate(48,47)"/>
<path d="M0 0 C0.99 0.33 1.98 0.66 3 1 C0.31941902 4.57410797 -2.42589203 7.31941902 -6 10 C-6.66 9.67 -7.32 9.34 -8 9 C-7.34 8.01 -6.68 7.02 -6 6 C-5.34 6 -4.68 6 -4 6 C-3.67 5.01 -3.34 4.02 -3 3 C-2.34 3 -1.68 3 -1 3 C-0.67 2.01 -0.34 1.02 0 0 Z " fill="#F3AB1C" transform="translate(115,23)"/>
<path d="M0 0 C1.22589844 0.01353516 1.22589844 0.01353516 2.4765625 0.02734375 C3.41628906 0.04474609 3.41628906 0.04474609 4.375 0.0625 C4.045 0.7225 3.715 1.3825 3.375 2.0625 C1.05343403 2.46979228 -1.2818787 2.80688677 -3.625 3.0625 C-3.955 4.0525 -4.285 5.0425 -4.625 6.0625 C-5.285 6.0625 -5.945 6.0625 -6.625 6.0625 C-6.625 4.4125 -6.625 2.7625 -6.625 1.0625 C-4.21954362 -0.14022819 -2.67503047 -0.03821472 0 0 Z " fill="#AC8D83" transform="translate(74.625,17.9375)"/>
<path d="M0 0 C0 0.66 0 1.32 0 2 C-1.43344 2.53190541 -2.87195367 3.05015258 -4.3125 3.5625 C-5.51326172 3.99755859 -5.51326172 3.99755859 -6.73828125 4.44140625 C-9 5 -9 5 -12 4 C-9 2 -9 2 -6 2 C-6 1.34 -6 0.68 -6 0 C-3.50907189 -1.24546405 -2.58919267 -0.7767578 0 0 Z " fill="#450B1D" transform="translate(74,59)"/>
<path d="M0 0 C-3 2 -3 2 -6 2 C-6 2.66 -6 3.32 -6 4 C-7.98 4.33 -9.96 4.66 -12 5 C-12 4.01 -12 3.02 -12 2 C-10.75579353 1.4654744 -9.50429064 0.94791389 -8.25 0.4375 C-7.55390625 0.14746094 -6.8578125 -0.14257812 -6.140625 -0.44140625 C-3.69987216 -1.07831803 -2.3596345 -0.80248831 0 0 Z " fill="#99459C" transform="translate(157,57)"/>
<path d="M0 0 C1.32 0 2.64 0 4 0 C4 1.65 4 3.3 4 5 C2.02 5 0.04 5 -2 5 C-2 4.01 -2 3.02 -2 2 C-1.34 2 -0.68 2 0 2 C0 1.34 0 0.68 0 0 Z " fill="#814803" transform="translate(79,44)"/>
<path d="M0 0 C0.33 0.66 0.66 1.32 1 2 C-0.98 2.33 -2.96 2.66 -5 3 C-5 3.66 -5 4.32 -5 5 C-5.66 5 -6.32 5 -7 5 C-7 3.35 -7 1.7 -7 0 C-4.30234372 -1.34882814 -2.84835666 -0.80338265 0 0 Z " fill="#BF7605" transform="translate(110,39)"/>
<path d="M0 0 C1.45823212 -0.0270043 2.91660675 -0.04639787 4.375 -0.0625 C5.18710937 -0.07410156 5.99921875 -0.08570312 6.8359375 -0.09765625 C9 0 9 0 11 1 C11 1.99 11 2.98 11 4 C12.32 4.33 13.64 4.66 15 5 C14.34 5.66 13.68 6.32 13 7 C12.01 6.67 11.02 6.34 10 6 C10 4.68 10 3.36 10 2 C6.7 1.67 3.4 1.34 0 1 C0 0.67 0 0.34 0 0 Z " fill="#F5D565" transform="translate(51,23)"/>
<path d="M0 0 C2.64 0 5.28 0 8 0 C7.67 0.66 7.34 1.32 7 2 C4.05859375 2.6328125 4.05859375 2.6328125 0.4375 3.125 C-0.76003906 3.29257812 -1.95757812 3.46015625 -3.19140625 3.6328125 C-4.11824219 3.75398438 -5.04507813 3.87515625 -6 4 C-6 3.34 -6 2.68 -6 2 C-4.02 2 -2.04 2 0 2 C0 1.34 0 0.68 0 0 Z " fill="#F0AC1E" transform="translate(115,42)"/>
<path d="M0 0 C1.98 0 3.96 0 6 0 C6.33 1.98 6.66 3.96 7 6 C6.01 6 5.02 6 4 6 C3.896875 5.360625 3.79375 4.72125 3.6875 4.0625 C3.460625 3.381875 3.23375 2.70125 3 2 C2.01 1.67 1.02 1.34 0 1 C0 0.67 0 0.34 0 0 Z " fill="#BA6E08" transform="translate(128,24)"/>
<path d="M0 0 C0.33 0 0.66 0 1 0 C1 3.63 1 7.26 1 11 C1.99 11.33 2.98 11.66 4 12 C3.67 12.99 3.34 13.98 3 15 C1.35 15 -0.3 15 -2 15 C-1.01 14.67 -0.02 14.34 1 14 C0.67 13.34 0.34 12.68 0 12 C-0.07065617 9.95944995 -0.08421976 7.91665743 -0.0625 5.875 C-0.05347656 4.77929688 -0.04445312 3.68359375 -0.03515625 2.5546875 C-0.02355469 1.71164063 -0.01195312 0.86859375 0 0 Z " fill="#854A51" transform="translate(50,165)"/>
<path d="M0 0 C7.75 -0.125 7.75 -0.125 10 1 C10 1.66 10 2.32 10 3 C7.36 3 4.72 3 2 3 C2 2.34 2 1.68 2 1 C1.34 0.67 0.68 0.34 0 0 Z " fill="#BC7719" transform="translate(63,55)"/>
<path d="M0 0 C0.33 1.32 0.66 2.64 1 4 C4.3 4.66 7.6 5.32 11 6 C11 6.33 11 6.66 11 7 C9.741875 7.020625 8.48375 7.04125 7.1875 7.0625 C6.47980469 7.07410156 5.77210938 7.08570313 5.04296875 7.09765625 C3 7 3 7 0 6 C0 4.02 0 2.04 0 0 Z " fill="#8F6DB2" transform="translate(134,35)"/>
<path d="M0 0 C0 0.99 0 1.98 0 3 C-2.31 3.33 -4.62 3.66 -7 4 C-7 2.68 -7 1.36 -7 0 C-3.86650268 -1.04449911 -3.01031744 -0.93423645 0 0 Z " fill="#DC920B" transform="translate(133,35)"/>
<path d="M0 0 C0.33 0.99 0.66 1.98 1 3 C1.99 3.33 2.98 3.66 4 4 C2.02253397 4.73080266 0.01927511 5.39421747 -2 6 C-2.66 5.67 -3.32 5.34 -4 5 C-3 2 -3 2 0 0 Z " fill="#F9B82B" transform="translate(96,30)"/>
<path d="M0 0 C0 0.66 0 1.32 0 2 C0.66 2.33 1.32 2.66 2 3 C0.35 3 -1.3 3 -3 3 C-2.67 3.99 -2.34 4.98 -2 6 C-3.32 6.33 -4.64 6.66 -6 7 C-5.6875 4.625 -5.6875 4.625 -5 2 C-2 0 -2 0 0 0 Z " fill="#8548AA" transform="translate(7,47)"/>
<path d="M0 0 C0.66 0 1.32 0 2 0 C2 0.66 2 1.32 2 2 C2.99 2.33 3.98 2.66 5 3 C5 3.66 5 4.32 5 5 C5.66 5 6.32 5 7 5 C7.33 5.99 7.66 6.98 8 8 C6.68 7.67 5.36 7.34 4 7 C4 6.34 4 5.68 4 5 C3.01 4.67 2.02 4.34 1 4 C0.3125 1.9375 0.3125 1.9375 0 0 Z " fill="#B77363" transform="translate(40,39)"/>
<path d="M0 0 C2.86724686 0.57344937 3.8614515 0.8614515 6 3 C8.57061311 3.64767793 8.57061311 3.64767793 11 4 C11 4.66 11 5.32 11 6 C7.37471432 6.20140476 5.13498292 5.85776765 2 4 C2 3.01 2 2.02 2 1 C1.34 0.67 0.68 0.34 0 0 Z " fill="#BCA188" transform="translate(60,23)"/>
<path d="M0 0 C0.99 0 1.98 0 3 0 C1.125 5.75 1.125 5.75 0 8 C-0.66 8 -1.32 8 -2 8 C-2 6.35 -2 4.7 -2 3 C-1.34 3 -0.68 3 0 3 C0 2.01 0 1.02 0 0 Z " fill="#E6A747" transform="translate(94,16)"/>
<path d="M0 0 C0.99 0 1.98 0 3 0 C3 0.66 3 1.32 3 2 C3.8971875 2.433125 3.8971875 2.433125 4.8125 2.875 C7 4 7 4 10 6 C7.69 6 5.38 6 3 6 C3 5.01 3 4.02 3 3 C1.68 2.34 0.36 1.68 -1 1 C-0.67 0.67 -0.34 0.34 0 0 Z " fill="#FCCE51" transform="translate(102,10)"/>
<path d="M0 0 C0.66 0.33 1.32 0.66 2 1 C1.01 2.485 1.01 2.485 0 4 C-2.1640625 4.29296875 -2.1640625 4.29296875 -4.625 4.1875 C-5.44226563 4.16042969 -6.25953125 4.13335937 -7.1015625 4.10546875 C-8.04128906 4.05326172 -8.04128906 4.05326172 -9 4 C-9 3.01 -9 2.02 -9 1 C-8.34 1 -7.68 1 -7 1 C-7 1.66 -7 2.32 -7 3 C-5.68 3 -4.36 3 -3 3 C-3 2.34 -3 1.68 -3 1 C-2.01 0.67 -1.02 0.34 0 0 Z " fill="#6C2731" transform="translate(83,58)"/>
<path d="M0 0 C0.66 0 1.32 0 2 0 C2 1.65 2 3.3 2 5 C0.02 5 -1.96 5 -4 5 C-4.33 4.01 -4.66 3.02 -5 2 C-3.35 2 -1.7 2 0 2 C0 1.34 0 0.68 0 0 Z " fill="#A75D03" transform="translate(60,50)"/>
<path d="M0 0 C2.97 0.99 5.94 1.98 9 3 C9 3.99 9 4.98 9 6 C7.35 5.67 5.7 5.34 4 5 C4 4.34 4 3.68 4 3 C2.68 2.67 1.36 2.34 0 2 C0 1.34 0 0.68 0 0 Z " fill="#E7A232" transform="translate(47,44)"/>
<path d="M0 0 C3.3125 -0.1875 3.3125 -0.1875 7 0 C7.99 0.99 8.98 1.98 10 3 C6.7 3 3.4 3 0 3 C0 2.01 0 1.02 0 0 Z " fill="#A170AA" transform="translate(138,42)"/>
<path d="M0 0 C0 0.66 0 1.32 0 2 C-0.66 2 -1.32 2 -2 2 C-2 3.65 -2 5.3 -2 7 C-2.66 6.34 -3.32 5.68 -4 5 C-4 4.01 -4 3.02 -4 2 C-5.32 1.67 -6.64 1.34 -8 1 C-5.29120665 -0.35439668 -2.99066732 -0.06501451 0 0 Z " fill="#FBBB51" transform="translate(94,17)"/>
<path d="M0 0 C0.99 0.33 1.98 0.66 3 1 C-1.455 3.97 -1.455 3.97 -6 7 C-6.66 6.67 -7.32 6.34 -8 6 C-6.6875 4.5 -6.6875 4.5 -5 3 C-4.01 3 -3.02 3 -2 3 C-2 2.34 -2 1.68 -2 1 C-1.34 0.67 -0.68 0.34 0 0 Z " fill="#7943B4" transform="translate(97,188)"/>
<path d="M0 0 C0.33 0 0.66 0 1 0 C1 2.31 1 4.62 1 7 C1.66 7 2.32 7 3 7 C3 7.66 3 8.32 3 9 C1.35 8.67 -0.3 8.34 -2 8 C-1.34 5.36 -0.68 2.72 0 0 Z " fill="#965377" transform="translate(116,170)"/>
<path d="M0 0 C0 0.66 0 1.32 0 2 C-1.98 2.33 -3.96 2.66 -6 3 C-6 3.66 -6 4.32 -6 5 C-6.99 5 -7.98 5 -9 5 C-9 4.34 -9 3.68 -9 3 C-9.66 2.67 -10.32 2.34 -11 2 C-9.5422647 1.664061 -8.08378894 1.33133376 -6.625 1 C-5.40683594 0.7215625 -5.40683594 0.7215625 -4.1640625 0.4375 C-2 0 -2 0 0 0 Z " fill="#D18E35" transform="translate(59,62)"/>
<path d="M0 0 C2.475 0.99 2.475 0.99 5 2 C5 3.65 5 5.3 5 7 C4.34 7 3.68 7 3 7 C3 6.01 3 5.02 3 4 C1.68 3.67 0.36 3.34 -1 3 C-0.67 2.01 -0.34 1.02 0 0 Z " fill="#9255B6" transform="translate(163,48)"/>
<path d="M0 0 C1.98 0 3.96 0 6 0 C6 0.66 6 1.32 6 2 C6.66 2 7.32 2 8 2 C8 2.66 8 3.32 8 4 C6.35 4 4.7 4 3 4 C2.67 3.01 2.34 2.02 2 1 C1.34 0.67 0.68 0.34 0 0 Z " fill="#FACA31" transform="translate(86,38)"/>
<path d="M0 0 C2 0 2 0 3.625 1.1875 C5.42149467 3.55560662 5.23521845 5.09897251 5 8 C4.34 8 3.68 8 3 8 C2.67 6.35 2.34 4.7 2 3 C1.34 3 0.68 3 0 3 C0 2.01 0 1.02 0 0 Z " fill="#F5A824" transform="translate(83,24)"/>
<path d="M0 0 C1.485 0.99 1.485 0.99 3 2 C3 2.66 3 3.32 3 4 C3.66 4 4.32 4 5 4 C5 4.66 5 5.32 5 6 C3.35 6 1.7 6 0 6 C0 4.02 0 2.04 0 0 Z " fill="#872D81" transform="translate(117,69)"/>
<path d="M0 0 C0.33 0.99 0.66 1.98 1 3 C1.99 3.33 2.98 3.66 4 4 C0.625 4.1875 0.625 4.1875 -3 4 C-3.66 3.01 -4.32 2.02 -5 1 C-3.35 0.67 -1.7 0.34 0 0 Z " fill="#873D76" transform="translate(122,47)"/>
<path d="M0 0 C1.32 0.33 2.64 0.66 4 1 C4.33 2.32 4.66 3.64 5 5 C3.35 5 1.7 5 0 5 C0 3.35 0 1.7 0 0 Z " fill="#906479" transform="translate(44,46)"/>
<path d="M0 0 C2.97 0 5.94 0 9 0 C9 0.66 9 1.32 9 2 C6.36 2.33 3.72 2.66 1 3 C0.67 2.01 0.34 1.02 0 0 Z " fill="#FCC93A" transform="translate(91,44)"/>
<path d="M0 0 C1.98 0 3.96 0 6 0 C5.67 0.99 5.34 1.98 5 3 C3.02 3 1.04 3 -1 3 C-0.67 2.01 -0.34 1.02 0 0 Z " fill="#FDC951" transform="translate(86,35)"/>
<path d="M0 0 C0.66 0 1.32 0 2 0 C2.33 2.31 2.66 4.62 3 7 C2.01 7 1.02 7 0 7 C0 4.69 0 2.38 0 0 Z " fill="#F1A225" transform="translate(89,23)"/>
<path d="M0 0 C2.475 0.495 2.475 0.495 5 1 C5.33 1.99 5.66 2.98 6 4 C6.99 4.33 7.98 4.66 9 5 C6.75 5.3125 6.75 5.3125 4 5 C1.6875 2.5 1.6875 2.5 0 0 Z " fill="#8846A0" transform="translate(71,188)"/>
<path d="M0 0 C0.99 0.33 1.98 0.66 3 1 C3 2.32 3 3.64 3 5 C1.35 5.33 -0.3 5.66 -2 6 C-2 5.01 -2 4.02 -2 3 C-1.34 3 -0.68 3 0 3 C0 2.01 0 1.02 0 0 Z " fill="#A649A4" transform="translate(85,82)"/>
<path d="M0 0 C1.65 0 3.3 0 5 0 C5 0.99 5 1.98 5 3 C3.1875 3.625 3.1875 3.625 1 4 C0.01 3.34 -0.98 2.68 -2 2 C-1.34 2 -0.68 2 0 2 C0 1.34 0 0.68 0 0 Z " fill="#EBA20C" transform="translate(102,47)"/>
<path d="M0 0 C3.55780196 0.60990891 6.6828589 1.5783681 10 3 C10 3.33 10 3.66 10 4 C6.6875 4.25 6.6875 4.25 3 4 C1.0625 2 1.0625 2 0 0 Z " fill="#9369B9" transform="translate(145,42)"/>
<path d="M0 0 C0 0.66 0 1.32 0 2 C-1.65 2.33 -3.3 2.66 -5 3 C-5 2.01 -5 1.02 -5 0 C-5.99 -0.33 -6.98 -0.66 -8 -1 C-4.59745511 -2.2151946 -3.06748874 -1.86240388 0 0 Z " fill="#F7D044" transform="translate(82,36)"/>
<path d="M0 0 C2 0 2 0 3.625 1.375 C5 3 5 3 5 5 C4.01 5.33 3.02 5.66 2 6 C1.34 5.67 0.68 5.34 0 5 C0 3.35 0 1.7 0 0 Z " fill="#BF6F0A" transform="translate(71,21)"/>
<path d="M0 0 C0.99 0 1.98 0 3 0 C3 2 3 2 1.6875 3.5625 C0 5 0 5 -3 6 C-3 5.01 -3 4.02 -3 3 C-2.34 3 -1.68 3 -1 3 C-0.67 2.01 -0.34 1.02 0 0 Z " fill="#912B86" transform="translate(51,69)"/>
<path d="M0 0 C0.66 0.33 1.32 0.66 2 1 C1.67 2.32 1.34 3.64 1 5 C-0.32 5 -1.64 5 -3 5 C-2.625 3.0625 -2.625 3.0625 -2 1 C-1.34 0.67 -0.68 0.34 0 0 Z " fill="#EDA23B" transform="translate(46,53)"/>
<path d="M0 0 C0.66 0.33 1.32 0.66 2 1 C1.67 1.66 1.34 2.32 1 3 C0.34 3 -0.32 3 -1 3 C-1.33 4.32 -1.66 5.64 -2 7 C-2.66 7 -3.32 7 -4 7 C-4 5.68 -4 4.36 -4 3 C-2 1.25 -2 1.25 0 0 Z " fill="#8D577E" transform="translate(127,43)"/>
<path d="M0 0 C1.98 0 3.96 0 6 0 C6 0.66 6 1.32 6 2 C3.36 2.33 0.72 2.66 -2 3 C-1.34 2.67 -0.68 2.34 0 2 C0 1.34 0 0.68 0 0 Z " fill="#E79708" transform="translate(120,39)"/>
<path d="M0 0 C0.99 0 1.98 0 3 0 C2.25 1.9375 2.25 1.9375 1 4 C-1.125 4.75 -1.125 4.75 -3 5 C-2.67 4.01 -2.34 3.02 -2 2 C-1.34 2 -0.68 2 0 2 C0 1.34 0 0.68 0 0 Z " fill="#A15503" transform="translate(122,27)"/>
<path d="M0 0 C0.99 0.33 1.98 0.66 3 1 C3 1.66 3 2.32 3 3 C1.35 3.33 -0.3 3.66 -2 4 C-2 4.66 -2 5.32 -2 6 C-2.66 6 -3.32 6 -4 6 C-3.34 4.68 -2.68 3.36 -2 2 C-1.34 2 -0.68 2 0 2 C0 1.34 0 0.68 0 0 Z " fill="#F2B12E" transform="translate(119,26)"/>
<path d="M0 0 C0.66 0.66 1.32 1.32 2 2 C0.6875 3.5 0.6875 3.5 -1 5 C-1.99 5 -2.98 5 -4 5 C-4 4.01 -4 3.02 -4 2 C-2.68 1.34 -1.36 0.68 0 0 Z " fill="#EB9F17" transform="translate(101,28)"/>
<path d="M0 0 C1.98 0 3.96 0 6 0 C6 0.99 6 1.98 6 3 C4.35 3 2.7 3 1 3 C0.67 2.01 0.34 1.02 0 0 Z " fill="#F9C342" transform="translate(73,21)"/>
</svg>
